<?xml version="1.0" encoding="utf-8"?>
<!-- Generator: Adobe Illustrator 23.0.1, SVG Export Plug-In . SVG Version: 6.00 Build 0)  -->
<svg version="1.1" id="Layer_1" xmlns="http://www.w3.org/2000/svg" xmlns:xlink="http://www.w3.org/1999/xlink" x="0px" y="0px"
	 viewBox="0 0 24 24" style="enable-background:new 0 0 24 24;" xml:space="preserve">
<style type="text/css">
	.st0{fill:#151515;}
	.st1{fill:#F6F8FC;}
</style>
<path id="Rectangle_4" class="st0" d="M2,18h20c1.1,0,2,0.9,2,2l0,0c0,1.1-0.9,2-2,2H2c-1.1,0-2-0.9-2-2l0,0C0,18.9,0.9,18,2,18z"/>
<path id="Rectangle_2" class="st0" d="M2,2h20c1.1,0,2,0.9,2,2l0,0c0,1.1-0.9,2-2,2H2C0.9,6,0,5.1,0,4l0,0C0,2.9,0.9,2,2,2z"/>
<path id="Path_9" class="st0" d="M2,10h20c1.1,0,2,0.9,2,2s-0.9,2-2,2H2c-1.1,0-2-0.9-2-2S0.9,10,2,10z"/>
<rect id="Rectangle_56" x="9" y="9.2" class="st1" width="6.4" height="5.6"/>
<g>
</g>
<g>
</g>
<g>
</g>
<g>
</g>
<g>
</g>
<g>
</g>
<g>
</g>
<g>
</g>
<g>
</g>
<g>
</g>
<g>
</g>
</svg>
