<?xml version="1.0" encoding="utf-8"?>
<!-- Generator: Adobe Illustrator 23.0.1, SVG Export Plug-In . SVG Version: 6.00 Build 0)  -->
<svg version="1.1" id="Layer_1" xmlns="http://www.w3.org/2000/svg" xmlns:xlink="http://www.w3.org/1999/xlink" x="0px" y="0px"
	 viewBox="0 0 24 24" style="enable-background:new 0 0 24 24;" xml:space="preserve">
<path id="Icon_ionic-ios-close" d="M14.8,12.2l8.5-8.6c0.9-0.7,1-2,0.3-2.8s-1.9-1-2.8-0.3c-0.1,0.1-0.2,0.2-0.3,0.3L12,9.3L3.5,0.8
	c-0.7-0.9-1.9-1-2.8-0.3s-1,2-0.3,2.8c0.1,0.1,0.2,0.2,0.3,0.3l8.5,8.6l-8.5,8.6C0,21.6,0.2,22.9,1,23.6c0.7,0.6,1.8,0.6,2.5,0
	L12,15l8.5,8.6c0.9,0.7,2.1,0.6,2.8-0.3c0.6-0.7,0.6-1.8,0-2.5L14.8,12.2z"/>
<g>
</g>
<g>
</g>
<g>
</g>
<g>
</g>
<g>
</g>
<g>
</g>
<g>
</g>
<g>
</g>
<g>
</g>
<g>
</g>
<g>
</g>
</svg>
