<?xml version="1.0" encoding="utf-8"?>
<!-- Generator: Adobe Illustrator 23.0.1, SVG Export Plug-In . SVG Version: 6.00 Build 0)  -->
<svg version="1.1" id="Layer_1" xmlns="http://www.w3.org/2000/svg" xmlns:xlink="http://www.w3.org/1999/xlink" x="0px" y="0px"
	 viewBox="0 0 384 512" style="enable-background:new 0 0 384 512;" xml:space="preserve">
<style type="text/css">
	.st0{fill:#4795FB;}
</style>
<path class="st0" d="M272,384c9.6-31.9,29.5-59.1,49.2-86.2l0,0c5.2-7.1,10.4-14.2,15.4-21.4c19.8-28.5,31.4-63,31.4-100.3
	C368,78.8,289.2,0,192,0S16,78.8,16,176c0,37.3,11.6,71.9,31.4,100.3c5,7.2,10.2,14.3,15.4,21.4l0,0c19.8,27.1,39.7,54.4,49.2,86.2
	h160V384z M192,512c44.2,0,80-35.8,80-80v-16H112v16C112,476.2,147.8,512,192,512z M112,176c0,8.8-7.2,16-16,16s-16-7.2-16-16
	c0-61.9,50.1-112,112-112c8.8,0,16,7.2,16,16s-7.2,16-16,16C147.8,96,112,131.8,112,176z"/>
</svg>
