<?xml version="1.0" encoding="utf-8"?>
<!-- Generator: Adobe Illustrator 23.0.1, SVG Export Plug-In . SVG Version: 6.00 Build 0)  -->
<svg version="1.1" id="Layer_1" xmlns="http://www.w3.org/2000/svg" xmlns:xlink="http://www.w3.org/1999/xlink" x="0px" y="0px"
	 viewBox="0 0 110 30" style="enable-background:new 0 0 110 30;" xml:space="preserve">
<style type="text/css">
	.st0{clip-path:url(#SVGID_2_);}
	.st1{fill:#9DC130;}
	.st2{fill-rule:evenodd;clip-rule:evenodd;fill:#FFFFFF;}
	.st3{fill:#FFFFFF;}
</style>
<g>
	<defs>
		<rect id="SVGID_1_" width="110" height="30"/>
	</defs>
	<clipPath id="SVGID_2_">
		<use xlink:href="#SVGID_1_"  style="overflow:visible;"/>
	</clipPath>
	<g class="st0">
		<g>
			<path class="st1" d="M15,0h80c8.3,0,15,6.7,15,15l0,0c0,8.3-6.7,15-15,15H15C6.7,30,0,23.3,0,15l0,0C0,6.7,6.7,0,15,0z"/>
		</g>
		<path class="st2" d="M21.4,7.3c0.2-0.3,0.7-0.4,1-0.2c0.3,0.2,0.4,0.7,0.2,1l-1.2,1.7c0.8,0.3,1.3,0.5,1.3,0.5s-1.3,2.3-3.5,2.3
			c-2.2,0-3.8-2.1-3.8-2.1s0.6-0.4,1.4-0.7l-1.3-1.6c-0.3-0.3-0.2-0.8,0.1-1.1c0.3-0.3,0.8-0.2,1.1,0.1l1.7,2c0,0,0.1,0.1,0.1,0.1
			c0.2,0,0.4,0,0.6,0c0.3,0,0.6,0,0.9,0.1c0,0,0-0.1,0-0.1L21.4,7.3z M15.8,12.8c-0.6-0.4-1.5-1.5-1.5-1.5S12,13.1,12,17
			c0,3.9,4,6.2,4,6.2s1.9-1.9,2.4-4.4c0.5-2.4-0.7-5.1-0.7-5.1S16.4,13.2,15.8,12.8z M22.2,12.8c0.6-0.4,1.5-1.5,1.5-1.5
			S26,13.1,26,17c0,3.9-4,6.2-4,6.2s-1.9-1.9-2.4-4.4c-0.5-2.4,0.7-5.1,0.7-5.1S21.6,13.2,22.2,12.8z"/>
	</g>
</g>
<g>
	<path class="st3" d="M46.7,20.3v-10h3.5c1.2,0,2.1,0.2,2.7,0.7s0.9,1.1,0.9,2c0,0.5-0.1,0.9-0.4,1.3s-0.6,0.6-1,0.8
		c0.5,0.1,0.9,0.4,1.2,0.8s0.4,0.9,0.4,1.4c0,1-0.3,1.7-0.9,2.2s-1.5,0.7-2.6,0.8H46.7z M48.8,14.5h1.5c1,0,1.6-0.4,1.6-1.2
		c0-0.5-0.1-0.8-0.4-1S50.8,12,50.2,12h-1.4V14.5z M48.8,16v2.7h1.8c0.5,0,0.9-0.1,1.1-0.3s0.4-0.5,0.4-1c0-0.9-0.5-1.4-1.4-1.4
		H48.8z"/>
	<path class="st3" d="M63.2,10.3v6.6c0,1.1-0.3,2-1,2.6c-0.7,0.6-1.6,0.9-2.8,0.9c-1.2,0-2.1-0.3-2.8-0.9s-1-1.5-1-2.5v-6.6h2.1v6.6
		c0,0.7,0.2,1.1,0.5,1.4c0.3,0.3,0.7,0.4,1.3,0.4c1.2,0,1.7-0.6,1.8-1.8v-6.6H63.2z"/>
	<path class="st3" d="M72.8,19c-0.4,0.4-0.9,0.8-1.6,1s-1.4,0.4-2.2,0.4c-0.9,0-1.6-0.2-2.3-0.6c-0.6-0.4-1.2-0.9-1.5-1.6
		c-0.4-0.7-0.5-1.6-0.5-2.5V15c0-1,0.2-1.9,0.5-2.6c0.3-0.7,0.8-1.3,1.4-1.7c0.6-0.4,1.4-0.6,2.2-0.6c1.2,0,2.1,0.3,2.8,0.8
		s1.1,1.4,1.2,2.5h-2c-0.1-0.6-0.3-1-0.6-1.3c-0.3-0.3-0.7-0.4-1.3-0.4c-0.7,0-1.2,0.3-1.6,0.8S66.7,14,66.7,15v0.6
		c0,1,0.2,1.8,0.6,2.4s1,0.8,1.7,0.8c0.8,0,1.3-0.2,1.6-0.5v-1.7h-1.9v-1.5h3.9V19z"/>
</g>
<g>
</g>
<g>
</g>
<g>
</g>
<g>
</g>
<g>
</g>
<g>
</g>
<g>
</g>
<g>
</g>
<g>
</g>
<g>
</g>
<g>
</g>
</svg>
