<?xml version="1.0" encoding="utf-8"?>
<!-- Generator: Adobe Illustrator 23.0.1, SVG Export Plug-In . SVG Version: 6.00 Build 0)  -->
<svg version="1.1" id="Layer_1" xmlns="http://www.w3.org/2000/svg" xmlns:xlink="http://www.w3.org/1999/xlink" x="0px" y="0px"
	 viewBox="0 0 110 30" style="enable-background:new 0 0 110 30;" xml:space="preserve">
<style type="text/css">
	.st0{fill:#FFFFFF;}
	.st1{fill:#EF97E6;}
	.st2{enable-background:new    ;}
</style>
<g>
	<defs>
		<rect id="SVGID_1_" width="110" height="30"/>
	</defs>
	<clipPath id="SVGID_2_">
		<use xlink:href="#SVGID_1_"  style="overflow:visible;"/>
	</clipPath>
</g>
<path id="Oval_8" class="st0" d="M17.5,22c-1.4,0-2.8-0.4-3.9-1.3c-1.1-0.8-1.9-1.9-2.3-3.2c0-0.1,0-0.2,0-0.3
	c-0.1-0.5-0.1-0.8,0-0.9c0,0,0,0,0.1,0c0,0,0,0,0,0c0.1,0.2,0.2,0.3,0.3,0.5c0.1,0.3,0.3,0.6,0.4,0.9c0.2,0.3,0.4,0.6,0.7,0.9
	c0,0,0,0,0,0c0-0.1-0.1-0.2-0.2-0.4c-0.1-0.1-0.2-0.3-0.3-0.4c-0.2-0.3-0.2-0.5-0.2-0.6c0,0,0,0,0.1-0.1h0c0.1,0,0.3,0.3,0.6,0.6
	l0,0c0.1,0.2,0.3,0.3,0.4,0.5c0.2,0.3,0.5,0.5,0.8,0.7c0,0,0,0,0,0c0,0,0,0,0,0c0,0-0.1-0.2-0.2-0.3c-0.1-0.1-0.1-0.2-0.2-0.3l0,0
	c-0.1-0.2-0.3-0.4-0.1-0.5c0,0,0,0,0.1,0c0.1,0,0.4,0.2,0.6,0.4l0.1,0.1l0,0c0.2,0.2,0.3,0.3,0.4,0.3c0,0,0,0,0,0c0,0,0-0.1,0-0.2
	s-0.1-0.2,0-0.3c0,0,0.1-0.1,0.1-0.1h0c0.1,0,0.2,0.1,0.3,0.1l0,0c0.1,0.1,0.2,0.1,0.4,0.2c0.5,0.4,1,0.5,1.6,0.5
	c1.5,0,2.7-1.2,2.7-2.6c0-1.1-0.7-2-1.7-2.4c-0.1,0.1-0.2,0.3-0.3,0.4c-0.1,0.1-0.3,0.2-0.5,0.2c-0.1,0-0.2,0-0.3,0.1
	c-0.5,0.1-6.3,1.4-6.3,1.4c0,0,0,0-0.1,0c-0.2,0-0.4,0-0.5-0.1c-0.2-0.2,0.3-1.1,0.3-1.1c0.6-1.1,1.3-2.2,2-3.2
	c0.1-0.1,0.2-0.2,0.5-0.4c0.6-0.4,1.6-1.2,2.7-2.1c0.7-0.6,1.3-1.2,1.9-1.9c0.1-0.1,0.1-0.2,0.2-0.3C17.9,6.2,18,6,18.3,6
	c0.1,0,0.2,0,0.3,0.1c0.2,0.2,0.1,0.6,0.1,0.8c0,0,0,0,0,0.1c-0.2,0.6-0.4,1.2-0.6,1.7C18,8.9,18,9.1,18,9.2c1.6,0.1,3.1,0.8,4.3,2
	c1.1,1.2,1.7,2.7,1.7,4.3C23.9,19.2,21,22,17.5,22z M12.8,13.3c0,0,0,0,0.1,0c0.5,0,1-0.1,1.4-0.4c0.3-0.4,0.5-0.9,0.4-1.4
	c-0.4,0.2-0.7,0.5-1.1,0.8C13.4,12.6,13.1,12.9,12.8,13.3L12.8,13.3z"/>
<g id="Group_4" transform="translate(15 15)">
	<g transform="matrix(1, 0, 0, 1, -15, -15)">
		<path id="Rectangle-2" class="st1" d="M15,0h80c8.3,0,15,6.7,15,15l0,0c0,8.3-6.7,15-15,15H15C6.7,30,0,23.3,0,15l0,0
			C0,6.7,6.7,0,15,0z"/>
	</g>
	<g class="st2">
	</g>
	<path id="Star" class="st0" d="M0.5,8C0.4,8,0.3,8,0.3,7.9l-1.9-3.6l-2.1,0.6c-0.1,0-0.2,0-0.3-0.1c0-0.1-0.1-0.1,0-0.2l0.6-2
		l-3.4-1.9C-7,0.6-7,0.5-7,0.4c0,0,0.1-0.1,0.1-0.1l3.5-1.9L-4-3.7c0-0.1,0-0.2,0-0.2C-3.9-4-3.8-4.1-3.7-4l2.1,0.6l1.9-3.4
		C0.4-7,0.5-7,0.6-7c0,0,0.1,0.1,0.1,0.1l1.9,3.4L4.7-4c0,0,0,0,0.1,0C4.9-4.1,4.9-4,5-4c0,0.1,0.1,0.1,0,0.2L4.4-1.6l3.5,1.9
		C8,0.4,8,0.5,8,0.6c0,0-0.1,0.1-0.1,0.1L4.4,2.6l0.6,2c0,0.1,0,0.2,0,0.2c0,0.1-0.1,0.1-0.2,0.1c0,0,0,0-0.1,0L2.7,4.3L0.7,7.9
		C0.7,8,0.6,8,0.5,8z M0.5-2c-0.1,0-0.2,0-0.2,0.1l-0.8,1.4l-1.4,0.8C-2,0.4-2,0.5-1.9,0.6c0,0,0.1,0.1,0.1,0.1l1.4,0.8l0.8,1.4
		C0.3,3,0.4,3,0.5,3c0.1,0,0.2,0,0.2-0.1l0.8-1.4l1.4-0.8C3,0.7,3,0.5,3,0.4c0,0-0.1-0.1-0.1-0.1L1.5-0.4L0.7-1.8
		C0.7-1.9,0.6-2,0.5-2z"/>
</g>
<g>
	<path class="st0" d="M48.7,16.2h-3.9v4.1h-2.1v-10h6.5V12h-4.4v2.6h3.9V16.2z"/>
	<path class="st0" d="M54.7,18.3h-3.6l-0.7,2.1h-2.2l3.7-10h1.9l3.7,10h-2.2L54.7,18.3z M51.7,16.6h2.5l-1.3-3.7L51.7,16.6z"/>
	<path class="st0" d="M60.7,20.3h-2.1v-10h2.1V20.3z"/>
	<path class="st0" d="M66.3,16.7h-1.6v3.6h-2.1v-10h3.7c1.2,0,2.1,0.3,2.7,0.8s1,1.3,1,2.2c0,0.7-0.1,1.2-0.4,1.7
		c-0.3,0.5-0.7,0.8-1.3,1.1l2.2,4.1v0.1h-2.2L66.3,16.7z M64.6,15h1.7c0.5,0,0.9-0.1,1.2-0.4s0.4-0.6,0.4-1.1c0-0.5-0.1-0.8-0.4-1.1
		c-0.3-0.3-0.7-0.4-1.2-0.4h-1.6V15z"/>
	<path class="st0" d="M74.6,14.8l2.1-4.5h2.2l-3.3,6.3v3.6h-2.1v-3.6l-3.3-6.3h2.2L74.6,14.8z"/>
</g>
<g>
</g>
<g>
</g>
<g>
</g>
<g>
</g>
<g>
</g>
<g>
</g>
<g>
</g>
<g>
</g>
<g>
</g>
<g>
</g>
<g>
</g>
</svg>
