<?xml version="1.0" encoding="utf-8"?>
<!-- Generator: Adobe Illustrator 23.0.1, SVG Export Plug-In . SVG Version: 6.00 Build 0)  -->
<svg version="1.1" id="Layer_1" xmlns="http://www.w3.org/2000/svg" xmlns:xlink="http://www.w3.org/1999/xlink" x="0px" y="0px"
	 viewBox="0 0 110 30" style="enable-background:new 0 0 110 30;" xml:space="preserve">
<style type="text/css">
	.st0{enable-background:new    ;}
	.st1{fill:#6970C5;}
	.st2{fill:#FFFFFF;}
</style>
<g>
	<defs>
		<rect id="SVGID_1_" width="110" height="30"/>
	</defs>
	<clipPath id="SVGID_2_">
		<use xlink:href="#SVGID_1_"  style="overflow:visible;"/>
	</clipPath>
</g>
<g id="Group_4" transform="translate(15 15)">
	<g class="st0">
	</g>
</g>
<g id="Tag_Ghost" transform="translate(10 10)">
	<g id="Group_4_1_" transform="translate(5 5)">
		<g transform="matrix(1, 0, 0, 1, -15, -15)">
			<path id="Rectangle-2" class="st1" d="M15,0h80c8.3,0,15,6.7,15,15l0,0c0,8.3-6.7,15-15,15H15C6.7,30,0,23.3,0,15l0,0
				C0,6.7,6.7,0,15,0z"/>
		</g>
		<path id="Oval_10" class="st2" d="M1.9,7C0.1,6.7-1.7,5.9-3,4.6c-1.3-1.3-2-3-2-4.8C-5-4-1.8-7,2-7c3.8,0,7,3,7,6.9
			c0,1.7-0.6,3.3-1.8,4.6C7.1,4.5,7.1,4.6,7.1,4.7c0,0.2,0.3,0.4,0.6,0.5s0.6,0.3,0.7,0.6c0,0.1,0,0.2-0.1,0.2C7.4,6.7,6.2,7,5.1,7
			C4.5,7,3.8,7,3.2,7C2.8,7,2.3,7,1.9,7z M3.9,0.1C4.5,0.1,4.9-0.4,5-1c0-0.4-0.2-0.7-0.5-0.9C4.4-1.4,4-1,3.4-1H2.8
			C2.8-0.4,3.3,0.1,3.9,0.1z M-1.2-1c0,0.6,0.5,1.1,1.1,1.1C0.5,0.1,1-0.4,1-1H0.3c-0.5,0-0.9-0.4-1-0.9C-1-1.7-1.2-1.4-1.2-1z"/>
	</g>
</g>
<g>
	<path class="st2" d="M47.6,19c-0.4,0.4-0.9,0.8-1.6,1s-1.4,0.4-2.2,0.4c-0.9,0-1.6-0.2-2.3-0.6S40.4,19,40,18.2
		c-0.4-0.7-0.5-1.6-0.5-2.5V15c0-1,0.2-1.9,0.5-2.6s0.8-1.3,1.4-1.7s1.4-0.6,2.2-0.6c1.2,0,2.1,0.3,2.8,0.8s1.1,1.4,1.2,2.5h-2
		c-0.1-0.6-0.3-1-0.6-1.3s-0.7-0.4-1.3-0.4c-0.7,0-1.2,0.3-1.6,0.8S41.6,14,41.6,15v0.6c0,1,0.2,1.8,0.6,2.4s1,0.8,1.7,0.8
		c0.8,0,1.3-0.2,1.6-0.5v-1.7h-1.9v-1.5h3.9V19z"/>
	<path class="st2" d="M57.4,20.3h-2.1V16h-4v4.3h-2.1v-10h2.1v4h4v-4h2.1V20.3z"/>
	<path class="st2" d="M67.3,15.6c0,1-0.2,1.8-0.5,2.6s-0.8,1.3-1.5,1.7c-0.6,0.4-1.4,0.6-2.2,0.6c-0.8,0-1.6-0.2-2.2-0.6
		s-1.1-1-1.5-1.7s-0.5-1.6-0.5-2.5v-0.5c0-1,0.2-1.8,0.5-2.6c0.4-0.7,0.9-1.3,1.5-1.7c0.6-0.4,1.4-0.6,2.2-0.6s1.6,0.2,2.2,0.6
		c0.6,0.4,1.1,1,1.5,1.7c0.4,0.7,0.5,1.6,0.5,2.6V15.6z M65.3,15.1c0-1-0.2-1.8-0.6-2.4s-0.9-0.8-1.6-0.8c-0.7,0-1.2,0.3-1.6,0.8
		s-0.6,1.3-0.6,2.4v0.5c0,1,0.2,1.8,0.6,2.4s0.9,0.8,1.6,0.8c0.7,0,1.2-0.3,1.6-0.8s0.6-1.3,0.6-2.4V15.1z"/>
	<path class="st2" d="M74,17.7c0-0.4-0.1-0.7-0.4-0.9s-0.8-0.4-1.5-0.7c-0.7-0.2-1.3-0.5-1.7-0.7c-1.1-0.6-1.7-1.4-1.7-2.5
		c0-0.5,0.2-1,0.5-1.4c0.3-0.4,0.7-0.8,1.3-1c0.6-0.2,1.2-0.4,1.9-0.4c0.7,0,1.3,0.1,1.9,0.4s1,0.6,1.3,1.1c0.3,0.5,0.5,1,0.5,1.6
		H74c0-0.5-0.1-0.8-0.4-1.1s-0.7-0.4-1.2-0.4c-0.5,0-0.9,0.1-1.2,0.3s-0.4,0.5-0.4,0.8c0,0.3,0.2,0.6,0.5,0.8
		c0.3,0.2,0.8,0.4,1.4,0.6c1.2,0.4,2,0.8,2.5,1.3c0.5,0.5,0.8,1.2,0.8,1.9c0,0.9-0.3,1.5-1,2s-1.5,0.7-2.6,0.7
		c-0.8,0-1.5-0.1-2.1-0.4s-1.1-0.7-1.4-1.2c-0.3-0.5-0.5-1.1-0.5-1.7h2.1c0,1.1,0.7,1.6,2,1.6c0.5,0,0.9-0.1,1.1-0.3S74,18,74,17.7z
		"/>
	<path class="st2" d="M84.9,12h-3v8.3h-2.1V12h-3v-1.7h8.1V12z"/>
</g>
<g>
</g>
<g>
</g>
<g>
</g>
<g>
</g>
<g>
</g>
<g>
</g>
<g>
</g>
<g>
</g>
<g>
</g>
<g>
</g>
<g>
</g>
</svg>
