<?xml version="1.0" encoding="utf-8"?>
<!-- Generator: Adobe Illustrator 23.0.1, SVG Export Plug-In . SVG Version: 6.00 Build 0)  -->
<svg version="1.1" id="Layer_1" xmlns="http://www.w3.org/2000/svg" xmlns:xlink="http://www.w3.org/1999/xlink" x="0px" y="0px"
	 viewBox="0 0 110 30" style="enable-background:new 0 0 110 30;" xml:space="preserve">
<style type="text/css">
	.st0{clip-path:url(#SVGID_3_);}
	.st1{enable-background:new    ;}
	.st2{clip-path:url(#SVGID_7_);}
	.st3{fill:#559EDF;}
	.st4{fill:#FFFFFF;}
</style>
<g>
	<defs>
		<line id="SVGID_1_" x1="0" y1="30" x2="0" y2="0"/>
	</defs>
	<defs>
		<line id="SVGID_2_" x1="110" y1="0" x2="110" y2="30"/>
	</defs>
	<clipPath id="SVGID_3_">
		<use xlink:href="#SVGID_1_"  style="overflow:visible;"/>
	</clipPath>
	<clipPath id="SVGID_4_" class="st0">
		<use xlink:href="#SVGID_2_"  style="overflow:visible;"/>
	</clipPath>
</g>
<g id="Group_4" transform="translate(15 15)">
	<g class="st1">
	</g>
</g>
<g>
	<defs>
		<path id="SVGID_5_" d="M106,31"/>
	</defs>
	<defs>
		<path id="SVGID_6_" d="M-4,31"/>
	</defs>
	<clipPath id="SVGID_7_">
		<use xlink:href="#SVGID_5_"  style="overflow:visible;"/>
	</clipPath>
	<clipPath id="SVGID_8_" class="st2">
		<use xlink:href="#SVGID_6_"  style="overflow:visible;"/>
	</clipPath>
</g>
<g>
</g>
<g id="Tag_Water" transform="translate(10 10)">
	<g id="Group_4_2_" transform="translate(5 5)">
		<g transform="matrix(1, 0, 0, 1, -15, -15)">
			<path id="Rectangle-2_1_" class="st3" d="M15,0h80c8.3,0,15,6.7,15,15l0,0c0,8.3-6.7,15-15,15H15C6.7,30,0,23.3,0,15l0,0
				C0,6.7,6.7,0,15,0z"/>
		</g>
	</g>
</g>
<g>
	<path class="st4" d="M45.5,17.4l1.3-7.1h2l-2.2,10h-2.1L43,13.6l-1.6,6.7h-2.1l-2.2-10h2l1.3,7.1l1.6-7.1h1.7L45.5,17.4z"/>
	<path class="st4" d="M55.3,18.3h-3.6L51,20.3h-2.2l3.7-10h1.9l3.7,10H56L55.3,18.3z M52.3,16.6h2.5l-1.3-3.7L52.3,16.6z"/>
	<path class="st4" d="M65.8,12h-3v8.3h-2.1V12h-3v-1.7h8.1V12z"/>
	<path class="st4" d="M72.9,16H69v2.7h4.6v1.6h-6.7v-10h6.7V12H69v2.4h3.9V16z"/>
	<path class="st4" d="M78.5,16.7h-1.6v3.6h-2.1v-10h3.7c1.2,0,2.1,0.3,2.7,0.8s1,1.3,1,2.2c0,0.7-0.1,1.2-0.4,1.7
		c-0.3,0.5-0.7,0.8-1.3,1.1l2.2,4.1v0.1h-2.2L78.5,16.7z M76.9,15h1.7c0.5,0,0.9-0.1,1.2-0.4s0.4-0.6,0.4-1.1c0-0.5-0.1-0.8-0.4-1.1
		c-0.3-0.3-0.7-0.4-1.2-0.4h-1.6V15z"/>
</g>
<path id="Oval_5" class="st4" d="M16.2,21.7c-2.1,0-3.8-1.3-4.6-3c-0.4-0.9-0.3-2,0.1-2.9l4-8.4C15.8,7,16.1,6.9,16.4,7
	c0.1,0,0.2,0.1,0.2,0.2l4,8.4c0.4,0.9,0.5,2,0.1,2.9C20,20.4,18.2,21.7,16.2,21.7z M14.9,18.7c-0.6-0.4-1.3,0.5-0.7,1
	c0.3,0.2,0.6,0.4,1.1,0.5c0.3,0.1,0.6,0.1,0.9,0.1c1.2,0,2.3-0.6,3.1-1.5h0c-0.8,0.3-1.6,0.4-2.4,0.4c-0.4,0-0.9-0.1-1.3-0.2
	C15.4,18.9,15.1,18.8,14.9,18.7z"/>
<g>
</g>
<g>
</g>
<g>
</g>
<g>
</g>
<g>
</g>
<g>
</g>
<g>
</g>
<g>
</g>
<g>
</g>
<g>
</g>
<g>
</g>
</svg>
