<?xml version="1.0" encoding="utf-8"?>
<!-- Generator: Adobe Illustrator 23.0.1, SVG Export Plug-In . SVG Version: 6.00 Build 0)  -->
<svg version="1.1" id="Layer_1" xmlns="http://www.w3.org/2000/svg" xmlns:xlink="http://www.w3.org/1999/xlink" x="0px" y="0px"
	 viewBox="0 0 72 72" style="enable-background:new 0 0 72 72;" xml:space="preserve">
<style type="text/css">
	.st0{fill:url(#Rectangle-2_1_);}
	.st1{fill:#FFFFFF;}
</style>
<g id="Types_Bug" transform="translate(10 10)">
	<g id="Group" transform="translate(5 5)">
		<g transform="matrix(1, 0, 0, 1, -15, -15)">
			
				<linearGradient id="Rectangle-2_1_" gradientUnits="userSpaceOnUse" x1="10.6667" y1="61.5333" x2="10.6667" y2="59.1333" gradientTransform="matrix(30 0 0 -30 -284 1846)">
				<stop  offset="0" style="stop-color:#92BC2C"/>
				<stop  offset="1" style="stop-color:#AFC836"/>
			</linearGradient>
			<path id="Rectangle-2" class="st0" d="M36,0L36,0c19.9,0,36,16.1,36,36l0,0c0,19.9-16.1,36-36,36l0,0C16.1,72,0,55.9,0,36l0,0
				C0,16.1,16.1,0,36,0z"/>
		</g>
		<path id="Path_3" class="st1" d="M28.3,39.6L28.3,39.6c-2.8-2.9-4.7-6.5-5.7-10.4c-0.5-4.2,0.1-8.4,1.7-12.3
			c1.6-0.5,3-1.2,4.4-2.1c1.3-1.1,2.5-2.3,3.6-3.7c3.7,3.6,5.7,8.5,5.5,13.6c-0.2,4.1-1.9,8-4.8,10.9C31.6,37.1,30,38.5,28.3,39.6
			L28.3,39.6z M13.7,39.6c-1.8-1.1-3.4-2.4-4.8-4c-2.9-2.9-4.6-6.8-4.8-10.9C4,19.6,6,14.6,9.7,11.1c1.1,1.3,2.3,2.6,3.6,3.7
			c1.4,0.8,2.9,1.5,4.5,2.1c1.6,3.9,2.1,8.1,1.6,12.3C18.5,33,16.5,36.6,13.7,39.6L13.7,39.6L13.7,39.6z M12.2,9.4L12.2,9.4
			c1.1-0.6,2.2-1.2,3.4-1.6L12.4,4c-0.6-0.8-0.5-1.9,0.2-2.5c0.8-0.6,1.9-0.5,2.5,0.2l4.1,4.8c0.1,0.1,0.1,0.2,0.2,0.3
			c0.5-0.1,1-0.1,1.5-0.1c0.7,0,1.4,0.1,2.1,0.1c0-0.1,0.1-0.1,0.1-0.2l3.6-5.2c0.6-0.8,1.7-1,2.5-0.4c0.8,0.6,1,1.7,0.4,2.5
			l-2.9,4.2c1.1,0.3,2.2,0.8,3.2,1.3c-0.3,0.6-3.5,5.4-8.5,5.4C17.7,14.1,14.4,12.3,12.2,9.4z"/>
	</g>
</g>
<g>
</g>
<g>
</g>
<g>
</g>
<g>
</g>
<g>
</g>
<g>
</g>
<g>
</g>
<g>
</g>
<g>
</g>
<g>
</g>
<g>
</g>
</svg>
