<?xml version="1.0" encoding="utf-8"?>
<!-- Generator: Adobe Illustrator 23.0.1, SVG Export Plug-In . SVG Version: 6.00 Build 0)  -->
<svg version="1.1" id="Capa_1" xmlns="http://www.w3.org/2000/svg" xmlns:xlink="http://www.w3.org/1999/xlink" x="0px" y="0px"
	 viewBox="0 0 255.1 255.1" style="enable-background:new 0 0 255.1 255.1;" xml:space="preserve">
<style type="text/css">
	.st0{fill:url(#Rectangle-2_1_);}
	.st1{fill-rule:evenodd;clip-rule:evenodd;fill:#FFFFFF;}
</style>
<g id="Types_Dark" transform="translate(10 10)">
	<g id="Group" transform="translate(5 5)">
		<g transform="matrix(1, 0, 0, 1, -15, -15)">
			
				<linearGradient id="Rectangle-2_1_" gradientUnits="userSpaceOnUse" x1="101.685" y1="155.5667" x2="101.685" y2="147.1739" gradientTransform="matrix(30 0 0 -30 -2923 4667)">
				<stop  offset="0" style="stop-color:#595761"/>
				<stop  offset="1" style="stop-color:#6E7587"/>
			</linearGradient>
			<path id="Rectangle-2" class="st0" d="M127.6,0L127.6,0C198,0,255.1,57.1,255.1,127.6l0,0c0,70.4-57.1,127.6-127.6,127.6l0,0
				C57.1,255.1,0,198,0,127.6l0,0C0,57.1,57.1,0,127.6,0z"/>
		</g>
	</g>
</g>
<path class="st1" d="M109.3,184c3.2,0.4,6.5,0.7,9.8,0.7c35.6,0,64.5-25.2,64.5-56.3c0-31.1-28.9-56.3-64.5-56.3
	c-2.4,0-4.8,0.1-7.1,0.3c17.7,11.7,29.4,31.9,29.4,54.9C141.5,151.5,128.6,172.7,109.3,184z M127.6,197.7
	c38.7,0,70.1-31.4,70.1-70.1s-31.4-70.1-70.1-70.1s-70.1,31.4-70.1,70.1S88.8,197.7,127.6,197.7z"/>
</svg>
