<?xml version="1.0" encoding="utf-8"?>
<!-- Generator: Adobe Illustrator 23.0.1, SVG Export Plug-In . SVG Version: 6.00 Build 0)  -->
<svg version="1.1" id="Layer_1" xmlns="http://www.w3.org/2000/svg" xmlns:xlink="http://www.w3.org/1999/xlink" x="0px" y="0px"
	 viewBox="0 0 72 72" style="enable-background:new 0 0 72 72;" xml:space="preserve">
<style type="text/css">
	.st0{fill:url(#Rectangle-2_1_);}
	.st1{fill:#FFFFFF;}
</style>
<g id="Types_Dragon" transform="translate(10 10)">
	<g id="Group" transform="translate(5 5)">
		<g transform="matrix(1, 0, 0, 1, -15, -15)">
			
				<linearGradient id="Rectangle-2_1_" gradientUnits="userSpaceOnUse" x1="10.6667" y1="61.5333" x2="10.6667" y2="59.1645" gradientTransform="matrix(30 0 0 -30 -284 1846)">
				<stop  offset="0" style="stop-color:#0C69C8"/>
				<stop  offset="1" style="stop-color:#0180C7"/>
			</linearGradient>
			<path id="Rectangle-2" class="st0" d="M36,0L36,0c19.9,0,36,16.1,36,36l0,0c0,19.9-16.1,36-36,36l0,0C16.1,72,0,55.9,0,36l0,0
				C0,16.1,16.1,0,36,0z"/>
		</g>
		<path id="Oval_8" class="st1" d="M22.1,39.2c-3.4,0-6.7-1.1-9.4-3.1c-2.6-1.9-4.6-4.7-5.6-7.8c0-0.2-0.1-0.4-0.1-0.6
			c-0.2-1.3-0.2-2,0-2.3c0,0,0.1-0.1,0.2-0.1c0,0,0.1,0,0.1,0c0.3,0.4,0.5,0.8,0.7,1.3c0.3,0.7,0.6,1.5,1,2.2c0.4,0.8,1,1.6,1.8,2.1
			c0,0,0,0,0,0c-0.1-0.3-0.3-0.6-0.5-0.8c-0.2-0.3-0.4-0.6-0.6-1c-0.4-0.7-0.6-1.2-0.5-1.5c0-0.1,0.1-0.1,0.1-0.1h0.1
			c0.3,0,0.8,0.6,1.4,1.4l0,0c0.3,0.4,0.6,0.8,1,1.1c0.5,0.7,1.2,1.2,2,1.6c0,0,0,0,0,0c0,0,0,0,0,0c0-0.1-0.2-0.4-0.5-0.8
			c-0.2-0.2-0.3-0.5-0.4-0.7l0,0c-0.3-0.6-0.6-1-0.3-1.2c0,0,0.1,0,0.1,0c0.3,0,0.8,0.4,1.4,0.9l0.2,0.2l0,0
			c0.4,0.4,0.7,0.7,0.9,0.7c0,0,0,0,0.1,0c0.1-0.1,0-0.3,0-0.6c-0.1-0.2-0.2-0.5-0.1-0.7c0.1-0.1,0.2-0.1,0.3-0.1h0
			c0.3,0.1,0.5,0.2,0.7,0.3l0,0c0.2,0.1,0.5,0.3,0.9,0.5c1.1,0.8,2.5,1.3,3.9,1.3c3.5,0,6.4-2.8,6.5-6.3c0-2.6-1.6-4.9-4-5.9
			c-0.1,0.3-0.4,0.6-0.7,0.9c-0.3,0.2-0.7,0.4-1.1,0.4c-0.2,0-0.4,0.1-0.8,0.1c-1.2,0.2-15.1,3.4-15.2,3.5c0,0-0.1,0-0.3,0
			c-0.4,0-0.9-0.1-1.2-0.4C3.9,23.2,5.1,21,5.1,21c1.4-2.7,3-5.3,4.8-7.8c0.1-0.1,0.6-0.5,1.3-1c1.5-1.1,4-2.9,6.5-5.1
			c1.6-1.4,3.2-2.9,4.6-4.6c0.2-0.2,0.3-0.4,0.5-0.7c0.4-0.6,0.7-1.1,1.4-1.1c0.3,0,0.6,0.1,0.8,0.3c0.4,0.5,0.3,1.4,0.3,2
			c0,0.1,0,0.1,0,0.2c-0.4,1.4-0.9,2.8-1.5,4.2c-0.1,0.4-0.2,0.8-0.2,1.1c3.9,0.3,7.6,2,10.2,4.9c2.7,2.8,4.2,6.5,4.2,10.4
			C37.7,32.4,30.7,39.3,22.1,39.2z M11,18.2c0,0,0.1,0,0.2,0c1.2,0.1,2.4-0.3,3.4-1.1c0.8-0.9,1.1-2.1,1-3.3
			c-0.9,0.6-1.8,1.2-2.6,1.9C12.3,16.6,11.7,17.4,11,18.2L11,18.2z"/>
	</g>
</g>
<g>
</g>
<g>
</g>
<g>
</g>
<g>
</g>
<g>
</g>
<g>
</g>
<g>
</g>
<g>
</g>
<g>
</g>
<g>
</g>
<g>
</g>
</svg>
