<?xml version="1.0" encoding="utf-8"?>
<!-- Generator: Adobe Illustrator 23.0.1, SVG Export Plug-In . SVG Version: 6.00 Build 0)  -->
<svg version="1.1" id="Layer_1" xmlns="http://www.w3.org/2000/svg" xmlns:xlink="http://www.w3.org/1999/xlink" x="0px" y="0px"
	 viewBox="0 0 72 72" style="enable-background:new 0 0 72 72;" xml:space="preserve">
<style type="text/css">
	.st0{fill:url(#Rectangle-2_1_);}
	.st1{fill:#FFFFFF;}
</style>
<g id="Types_Fire" transform="translate(10 10)">
	<g id="Group" transform="translate(5 5)">
		<g transform="matrix(1, 0, 0, 1, -15, -15)">
			
				<linearGradient id="Rectangle-2_1_" gradientUnits="userSpaceOnUse" x1="10.6667" y1="61.5333" x2="10.6667" y2="59.1333" gradientTransform="matrix(30 0 0 -30 -284 1846)">
				<stop  offset="0" style="stop-color:#FB9B51"/>
				<stop  offset="1" style="stop-color:#FBAE46"/>
			</linearGradient>
			<path id="Rectangle-2" class="st0" d="M36,0L36,0c19.9,0,36,16.1,36,36l0,0c0,19.9-16.1,36-36,36l0,0C16.1,72,0,55.9,0,36l0,0
				C0,16.1,16.1,0,36,0z"/>
		</g>
		<path id="Path_2" class="st1" d="M19.3,36.8c-3.3,0-6.5-1.4-8.8-3.8c-2.8-2.9-4-6.9-3.4-10.8c0.2-1.9,0.8-3.8,1.7-5.5
			c-0.1,0.6-0.2,1.2-0.2,1.9c0,0.6,0.2,1.2,0.5,1.8c0,0,0,0,0-0.1c0.8-1.7,1.7-3.3,2.9-4.7c1.2-1.2,2.5-2.3,4-3.3
			c0.9-0.6,1.7-1.2,2.4-1.9c2.8-3.2,1.1-9,1.1-9l0,0c0,0,0,0,0,0c1.9,1.8,3.3,4,4.1,6.5c0.2,1.5,0.2,3-0.1,4.4
			c-0.2,1.6-0.4,2.9,0.2,3.6c0.4,0.3,0.8,0.5,1.3,0.5h0.2c0.6,0,1.2-0.3,1.6-0.8c0.9-1.6-1.1-5.1-1.1-5.2l0,0c0,0,0,0,0,0
			c1.5,0.9,2.9,2,4.1,3.2c2.5,2.3,3.8,5.7,3.7,9.1c-0.3,3.2-2.1,6.1-4.9,7.7c-1.4,0.9-2.8,1.5-4.4,1.9c1.2-0.9,2.1-2.1,2.7-3.5
			c0.2-1.6,0-3.3-0.4-4.9c0,0,0,0,0,0c-0.3,1.3-0.8,2.5-1.6,3.6c-0.9,0.9-2,1.5-3.3,1.6c1.2-0.6,2-1.8,2-3.2c-0.1-2-1.7-3.5-3.7-3.5
			c-1.9,0-3.4,1.6-3.5,3.5c0,0.5,0.1,1,0.3,1.5c-0.8-0.7-1.3-1.6-1.4-2.6c0,0.1-1.3,5.8,2.4,8.4c1.5,1,3.3,1.4,5.1,1.3
			c2.1,0,4.1-0.4,6.1-0.9c0,0,0,0,0,0C26.2,35.5,22.8,36.6,19.3,36.8z"/>
	</g>
</g>
<g>
</g>
<g>
</g>
<g>
</g>
<g>
</g>
<g>
</g>
<g>
</g>
<g>
</g>
<g>
</g>
<g>
</g>
<g>
</g>
<g>
</g>
</svg>
