<?xml version="1.0" encoding="utf-8"?>
<!-- Generator: Adobe Illustrator 23.0.1, SVG Export Plug-In . SVG Version: 6.00 Build 0)  -->
<svg version="1.1" id="Layer_1" xmlns="http://www.w3.org/2000/svg" xmlns:xlink="http://www.w3.org/1999/xlink" x="0px" y="0px"
	 viewBox="0 0 72 72" style="enable-background:new 0 0 72 72;" xml:space="preserve">
<style type="text/css">
	.st0{fill:url(#Rectangle-2_1_);}
	.st1{fill:#FFFFFF;}
</style>
<g id="Types_Flying" transform="translate(10 10)">
	<g id="Group" transform="translate(5 5)">
		<g transform="matrix(1, 0, 0, 1, -15, -15)">
			
				<linearGradient id="Rectangle-2_1_" gradientUnits="userSpaceOnUse" x1="10.6667" y1="61.5333" x2="10.6667" y2="59.1333" gradientTransform="matrix(30 0 0 -30 -284 1846)">
				<stop  offset="0" style="stop-color:#90A7DA"/>
				<stop  offset="1" style="stop-color:#A6C2F2"/>
			</linearGradient>
			<path id="Rectangle-2" class="st0" d="M36,0L36,0c19.9,0,36,16.1,36,36l0,0c0,19.9-16.1,36-36,36l0,0C16.1,72,0,55.9,0,36l0,0
				C0,16.1,16.1,0,36,0z"/>
		</g>
		<path id="Oval_2" class="st1" d="M16.8,35.8c4.9,0.1,9.5-2.6,11.7-7.1c0-0.1-7.5,2-7.2,1.2c0.1-0.3,4.7-2,8.1-4
			c1.3-0.9,2.2-2.1,2.8-3.5c-1.6,0.8-3.2,1.4-4.9,2c-2,0.5-4.1,0.8-6.2,0.6c4.1-1.3,7.9-3,11.6-5.2c1.9-1.2,3.3-3.1,4-5.2
			c-1.8,1.1-3.6,2-5.6,2.8c-3.1,1.1-6.3,1.8-9.5,1.9c0-0.5,4-1.6,8.2-3.6c2.2-1.2,4.3-2.5,6.3-4c2.2-1.7,3.8-4.3,4.2-7.1
			c-1.7,1.1-3.5,2.1-5.3,3.1c-5.7,2.7-11.8,4.4-18.1,5.2C9.9,13.4,4.2,18.2,4.2,24.5C4.6,31.1,10.2,36.1,16.8,35.8z"/>
	</g>
</g>
<g>
</g>
<g>
</g>
<g>
</g>
<g>
</g>
<g>
</g>
<g>
</g>
<g>
</g>
<g>
</g>
<g>
</g>
<g>
</g>
<g>
</g>
</svg>
