<?xml version="1.0" encoding="utf-8"?>
<!-- Generator: Adobe Illustrator 23.0.1, SVG Export Plug-In . SVG Version: 6.00 Build 0)  -->
<svg version="1.1" id="Layer_1" xmlns="http://www.w3.org/2000/svg" xmlns:xlink="http://www.w3.org/1999/xlink" x="0px" y="0px"
	 viewBox="0 0 72 72" style="enable-background:new 0 0 72 72;" xml:space="preserve">
<style type="text/css">
	.st0{fill:url(#Rectangle-2_2_);}
	.st1{fill:#FFFFFF;}
</style>
<g id="Types_Ghost" transform="translate(10 10)">
	<g id="Group_1_" transform="translate(5 5)">
		<g transform="matrix(1, 0, 0, 1, -15, -15)">
			
				<linearGradient id="Rectangle-2_2_" gradientUnits="userSpaceOnUse" x1="10.6667" y1="61.5333" x2="10.6667" y2="59.1645" gradientTransform="matrix(30 0 0 -30 -284 1846)">
				<stop  offset="0" style="stop-color:#516AAC"/>
				<stop  offset="1" style="stop-color:#7773D4"/>
			</linearGradient>
			<path id="Rectangle-2_1_" class="st0" d="M36,0L36,0c19.9,0,36,16.1,36,36l0,0c0,19.9-16.1,36-36,36l0,0C16.1,72,0,55.9,0,36l0,0
				C0,16.1,16.1,0,36,0z"/>
		</g>
		<path id="Oval_10" class="st1" d="M20.7,37.7c-4.4-0.5-8.5-2.5-11.7-5.6c-3.1-3-4.8-7.1-4.8-11.5C4.3,11.5,11.8,4.1,21,4.2
			c9.2-0.1,16.7,7.3,16.8,16.5c0,4.1-1.5,8-4.3,11c-0.2,0.2-0.3,0.4-0.2,0.6c0.1,0.5,0.8,0.9,1.5,1.3c0.7,0.4,1.5,0.8,1.6,1.3
			c0,0.2,0,0.4-0.2,0.6c-2.3,1.5-5,2.2-7.8,2.2c-1.5,0.1-3.1,0.1-4.5,0.1C22.8,37.8,21.8,37.8,20.7,37.7z M25.5,21.2
			c1.4,0,2.6-1.1,2.6-2.6c0-0.9-0.5-1.8-1.3-2.2c0,1.2-1.1,2.2-2.3,2.2h-1.6C22.9,20,24,21.2,25.5,21.2z M13.4,18.6
			c0,1.5,1.2,2.6,2.6,2.6c1.4,0,2.6-1.2,2.6-2.6H17c-1.2,0-2.3-1-2.3-2.2C13.9,16.8,13.4,17.7,13.4,18.6z"/>
	</g>
</g>
<g>
</g>
<g>
</g>
<g>
</g>
<g>
</g>
<g>
</g>
<g>
</g>
<g>
</g>
<g>
</g>
<g>
</g>
<g>
</g>
<g>
</g>
</svg>
