<?xml version="1.0" encoding="utf-8"?>
<!-- Generator: Adobe Illustrator 23.0.1, SVG Export Plug-In . SVG Version: 6.00 Build 0)  -->
<svg version="1.1" id="Layer_1" xmlns="http://www.w3.org/2000/svg" xmlns:xlink="http://www.w3.org/1999/xlink" x="0px" y="0px"
	 viewBox="0 0 72 72" style="enable-background:new 0 0 72 72;" xml:space="preserve">
<style type="text/css">
	.st0{fill:url(#SVGID_1_);}
	.st1{fill-rule:evenodd;clip-rule:evenodd;fill:#FFFFFF;}
</style>
<g>
	
		<linearGradient id="SVGID_1_" gradientUnits="userSpaceOnUse" x1="306" y1="-286" x2="306" y2="-357.0717" gradientTransform="matrix(1 0 0 -1 -270 -286)">
		<stop  offset="0" style="stop-color:#DC7545"/>
		<stop  offset="1" style="stop-color:#D29463"/>
	</linearGradient>
	<path class="st0" d="M36,0L36,0c19.9,0,36,16.1,36,36l0,0c0,19.9-16.1,36-36,36l0,0C16.1,72,0,55.9,0,36l0,0C0,16.1,16.1,0,36,0z"
		/>
</g>
<path class="st1" d="M26.1,47.9c-0.1,0-0.2-0.1-0.2-0.3L35,21.9c0.1-0.2,0.3-0.3,0.5-0.3h9.3c0.2,0,0.4,0.1,0.5,0.3L54,47.3
	c0.1,0.3-0.1,0.6-0.5,0.6H26.1z M18.5,48c-0.3,0-0.6-0.3-0.5-0.7l6.6-17.5c0.1-0.2,0.3-0.3,0.5-0.3h5c0.3,0,0.6,0.3,0.5,0.6
	l-6.4,17.5c-0.1,0.2-0.3,0.3-0.5,0.3H18.5z"/>
<g>
</g>
<g>
</g>
<g>
</g>
<g>
</g>
<g>
</g>
<g>
</g>
<g>
</g>
<g>
</g>
<g>
</g>
<g>
</g>
<g>
</g>
</svg>
