<?xml version="1.0" encoding="utf-8"?>
<!-- Generator: Adobe Illustrator 23.0.1, SVG Export Plug-In . SVG Version: 6.00 Build 0)  -->
<svg version="1.1" id="Layer_1" xmlns="http://www.w3.org/2000/svg" xmlns:xlink="http://www.w3.org/1999/xlink" x="0px" y="0px"
	 viewBox="0 0 72 72" style="enable-background:new 0 0 72 72;" xml:space="preserve">
<style type="text/css">
	.st0{fill:url(#Rectangle-2_1_);}
	.st1{fill:#FFFFFF;}
</style>
<g id="Types_Normal" transform="translate(10 10)">
	<g id="Group" transform="translate(5 5)">
		<g transform="matrix(1, 0, 0, 1, -15, -15)">
			
				<linearGradient id="Rectangle-2_1_" gradientUnits="userSpaceOnUse" x1="10.6667" y1="61.5333" x2="10.6667" y2="59.1645" gradientTransform="matrix(30 0 0 -30 -284 1846)">
				<stop  offset="0" style="stop-color:#9298A4"/>
				<stop  offset="1" style="stop-color:#A3A49E"/>
			</linearGradient>
			<path id="Rectangle-2" class="st0" d="M36,0L36,0c19.9,0,36,16.1,36,36l0,0c0,19.9-16.1,36-36,36l0,0C16.1,72,0,55.9,0,36l0,0
				C0,16.1,16.1,0,36,0z"/>
		</g>
		<path id="Oval_11" class="st1" d="M21,37.8c-9.3,0-16.8-7.5-16.8-16.8S11.7,4.2,21,4.2S37.8,11.7,37.8,21
			C37.8,30.3,30.3,37.8,21,37.8z M21,11.4c-5.3,0-9.6,4.3-9.6,9.6s4.3,9.6,9.6,9.6s9.6-4.3,9.6-9.6C30.6,15.7,26.3,11.4,21,11.4z"/>
	</g>
</g>
<g>
</g>
<g>
</g>
<g>
</g>
<g>
</g>
<g>
</g>
<g>
</g>
<g>
</g>
<g>
</g>
<g>
</g>
<g>
</g>
<g>
</g>
</svg>
