<?xml version="1.0" encoding="utf-8"?>
<!-- Generator: Adobe Illustrator 23.0.1, SVG Export Plug-In . SVG Version: 6.00 Build 0)  -->
<svg version="1.1" id="Layer_1" xmlns="http://www.w3.org/2000/svg" xmlns:xlink="http://www.w3.org/1999/xlink" x="0px" y="0px"
	 viewBox="0 0 72 72" style="enable-background:new 0 0 72 72;" xml:space="preserve">
<style type="text/css">
	.st0{fill:url(#Rectangle-2_1_);}
	.st1{fill:#FFFFFF;}
</style>
<g id="Types_Poison" transform="translate(10 10)">
	<g id="Group" transform="translate(5 5)">
		<g transform="matrix(1, 0, 0, 1, -15, -15)">
			
				<linearGradient id="Rectangle-2_1_" gradientUnits="userSpaceOnUse" x1="10.6667" y1="61.5333" x2="10.6667" y2="59.1333" gradientTransform="matrix(30 0 0 -30 -284 1846)">
				<stop  offset="0" style="stop-color:#A864C7"/>
				<stop  offset="1" style="stop-color:#C261D4"/>
			</linearGradient>
			<path id="Rectangle-2" class="st0" d="M36,0L36,0c19.9,0,36,16.1,36,36l0,0c0,19.9-16.1,36-36,36l0,0C16.1,72,0,55.9,0,36l0,0
				C0,16.1,16.1,0,36,0z"/>
		</g>
		<path id="Oval_3" class="st1" d="M28.8,39.2c-1.6-0.1-3.1-1.1-3.8-2.5c-0.7,1.5-2.2,2.5-3.8,2.5c-1.8-0.1-3.4-1.3-4-3
			c-0.6,1.7-2.2,2.9-4,3c-2.6,0-4.7-2.9-4.7-6.4c0-0.8,0.1-1.6,0.3-2.3c-3.5-2.8-5.5-7-5.5-11.5c0-8.8,8.1-15.9,18-15.9
			s18,7.1,18,15.9c-0.1,4.6-2.3,9-5.9,11.8c0.2,0.6,0.2,1.3,0.2,2C33.5,36.4,31.4,39.2,28.8,39.2z M21,11.3
			c-5.9,0-10.7,3.6-10.7,8.1s4.8,8.1,10.7,8.1s10.7-3.6,10.7-8.1S26.8,11.3,21,11.3z"/>
	</g>
</g>
<g>
</g>
<g>
</g>
<g>
</g>
<g>
</g>
<g>
</g>
<g>
</g>
<g>
</g>
<g>
</g>
<g>
</g>
<g>
</g>
<g>
</g>
</svg>
