<?xml version="1.0" encoding="utf-8"?>
<!-- Generator: Adobe Illustrator 23.0.1, SVG Export Plug-In . SVG Version: 6.00 Build 0)  -->
<svg version="1.1" id="Layer_1" xmlns="http://www.w3.org/2000/svg" xmlns:xlink="http://www.w3.org/1999/xlink" x="0px" y="0px"
	 viewBox="0 0 72 72" style="enable-background:new 0 0 72 72;" xml:space="preserve">
<style type="text/css">
	.st0{fill:url(#Rectangle-2_1_);}
	.st1{fill:#FFFFFF;}
</style>
<g id="Types_Water" transform="translate(10 10)">
	<g id="Group" transform="translate(5 5)">
		<g transform="matrix(1, 0, 0, 1, -15, -15)">
			
				<linearGradient id="Rectangle-2_1_" gradientUnits="userSpaceOnUse" x1="10.6671" y1="61.5343" x2="10.6671" y2="59.1333" gradientTransform="matrix(30 0 0 -30 -284 1846)">
				<stop  offset="0" style="stop-color:#4A90DD"/>
				<stop  offset="1" style="stop-color:#6CBDE4"/>
			</linearGradient>
			<path id="Rectangle-2" class="st0" d="M36,0L36,0c19.9,0,36,16.1,36,36l0,0c0,19.9-16.1,36-36,36l0,0C16.1,72,0,55.9,0,36l0,0
				C0,16.1,16.1,0,36,0z"/>
		</g>
		<path id="Oval_5" class="st1" d="M21,38.2c-5,0-9.3-3-11.1-7.4c-1-2.3-0.8-4.9,0.3-7.1l9.7-20.3c0.3-0.6,1-0.8,1.6-0.6
			C21.8,3,22,3.2,22.1,3.4l9.7,20.3c1.1,2.2,1.2,4.8,0.3,7.1C30.3,35.2,26,38.2,21,38.2z M18.1,30.9c-1.5-0.9-3.1,1.2-1.7,2.3
			c0.7,0.5,1.5,0.9,2.6,1.2c0.7,0.2,1.4,0.2,2.2,0.2c2.9,0,5.6-1.3,7.4-3.5h0c-1.8,0.7-3.8,1-5.7,1.1c-1.1,0-2.1-0.1-3.1-0.5
			C19.1,31.4,18.6,31.2,18.1,30.9z"/>
	</g>
</g>
<g>
</g>
<g>
</g>
<g>
</g>
<g>
</g>
<g>
</g>
<g>
</g>
<g>
</g>
<g>
</g>
<g>
</g>
<g>
</g>
<g>
</g>
</svg>
