<?xml version="1.0" encoding="utf-8"?>
<!-- Generator: Adobe Illustrator 23.0.1, SVG Export Plug-In . SVG Version: 6.00 Build 0)  -->
<svg version="1.1" id="Layer_1" xmlns="http://www.w3.org/2000/svg" xmlns:xlink="http://www.w3.org/1999/xlink" x="0px" y="0px"
	 viewBox="0 0 110 30" style="enable-background:new 0 0 110 30;" xml:space="preserve">
<style type="text/css">
	.st0{fill:#5F606D;}
	.st1{fill:#FFFFFF;}
	.st2{fill-rule:evenodd;clip-rule:evenodd;fill:#FFFFFF;}
</style>
<g id="Group_4" transform="translate(15 15)">
	<g transform="matrix(1, 0, 0, 1, -15, -15)">
		<path id="Rectangle-2" class="st0" d="M15,0h80c8.3,0,15,6.7,15,15l0,0c0,8.3-6.7,15-15,15H15C6.7,30,0,23.3,0,15l0,0
			C0,6.7,6.7,0,15,0z"/>
	</g>
</g>
<g>
	<defs>
		<rect id="SVGID_1_" width="110" height="30"/>
	</defs>
	<clipPath id="SVGID_2_">
		<use xlink:href="#SVGID_1_"  style="overflow:visible;"/>
	</clipPath>
</g>
<g>
	<path class="st1" d="M43.7,20.3v-10h3.1c0.9,0,1.7,0.2,2.3,0.6s1.2,1,1.6,1.7s0.6,1.6,0.6,2.5v0.5c0,0.9-0.2,1.7-0.6,2.5
		c-0.4,0.7-0.9,1.3-1.6,1.7s-1.5,0.6-2.3,0.6H43.7z M45.8,12v6.6h1c0.8,0,1.4-0.3,1.8-0.8c0.4-0.5,0.6-1.3,0.6-2.2v-0.5
		c0-1-0.2-1.8-0.6-2.3s-1-0.8-1.8-0.8H45.8z"/>
	<path class="st1" d="M58.3,18.3h-3.6L54,20.3h-2.2l3.7-10h1.9l3.7,10H59L58.3,18.3z M55.3,16.6h2.5l-1.3-3.7L55.3,16.6z"/>
	<path class="st1" d="M65.8,16.7h-1.6v3.6h-2.1v-10h3.7c1.2,0,2.1,0.3,2.7,0.8s1,1.3,1,2.2c0,0.7-0.1,1.2-0.4,1.7
		c-0.3,0.5-0.7,0.8-1.3,1.1l2.2,4.1v0.1h-2.2L65.8,16.7z M64.2,15h1.7c0.5,0,0.9-0.1,1.2-0.4s0.4-0.6,0.4-1.1c0-0.5-0.1-0.8-0.4-1.1
		c-0.3-0.3-0.7-0.4-1.2-0.4h-1.6V15z"/>
	<path class="st1" d="M74.2,16.3l-1.1,1.1v2.8H71v-10h2.1v4.5l0.9-1.2l2.5-3.3h2.5l-3.5,4.4l3.6,5.5h-2.4L74.2,16.3z"/>
</g>
<path class="st2" d="M17.4,21.2c0.3,0,0.7,0.1,1.1,0.1c3.9,0,7-2.7,7-6.1c0-3.4-3.2-6.1-7-6.1c-0.3,0-0.5,0-0.8,0
	c1.9,1.3,3.2,3.5,3.2,6C20.9,17.6,19.5,19.9,17.4,21.2z M19.4,22.6c4.2,0,7.6-3.4,7.6-7.6s-3.4-7.6-7.6-7.6s-7.6,3.4-7.6,7.6
	S15.1,22.6,19.4,22.6z"/>
<g>
</g>
<g>
</g>
<g>
</g>
<g>
</g>
<g>
</g>
<g>
</g>
<g>
</g>
<g>
</g>
<g>
</g>
<g>
</g>
<g>
</g>
</svg>
