<?xml version="1.0" encoding="utf-8"?>
<!-- Generator: Adobe Illustrator 23.0.1, SVG Export Plug-In . SVG Version: 6.00 Build 0)  -->
<svg version="1.1" id="Layer_1" xmlns="http://www.w3.org/2000/svg" xmlns:xlink="http://www.w3.org/1999/xlink" x="0px" y="0px"
	 viewBox="0 0 110 30" style="enable-background:new 0 0 110 30;" xml:space="preserve">
<style type="text/css">
	.st0{fill:#0773C7;}
	.st1{fill:#FFFFFF;}
</style>
<g transform="matrix(1, 0, 0, 1, 0, 0)">
	<path id="Rectangle-2" class="st0" d="M15,0h80c8.3,0,15,6.7,15,15l0,0c0,8.3-6.7,15-15,15H15C6.7,30,0,23.3,0,15l0,0
		C0,6.7,6.7,0,15,0z"/>
</g>
<g>
	<defs>
		<rect id="SVGID_1_" width="110" height="30"/>
	</defs>
	<clipPath id="SVGID_2_">
		<use xlink:href="#SVGID_1_"  style="overflow:visible;"/>
	</clipPath>
</g>
<g>
	<path class="st1" d="M35.7,20.3v-10h3.1c0.9,0,1.7,0.2,2.3,0.6s1.2,1,1.6,1.7s0.6,1.6,0.6,2.5v0.5c0,0.9-0.2,1.7-0.6,2.5
		c-0.4,0.7-0.9,1.3-1.6,1.7s-1.5,0.6-2.3,0.6H35.7z M37.8,12v6.6h1c0.8,0,1.4-0.3,1.8-0.8c0.4-0.5,0.6-1.3,0.6-2.2v-0.5
		c0-1-0.2-1.8-0.6-2.3s-1-0.8-1.8-0.8H37.8z"/>
	<path class="st1" d="M48.5,16.7h-1.6v3.6h-2.1v-10h3.7c1.2,0,2.1,0.3,2.7,0.8s1,1.3,1,2.2c0,0.7-0.1,1.2-0.4,1.7
		c-0.3,0.5-0.7,0.8-1.3,1.1l2.2,4.1v0.1h-2.2L48.5,16.7z M46.9,15h1.7c0.5,0,0.9-0.1,1.2-0.4s0.4-0.6,0.4-1.1c0-0.5-0.1-0.8-0.4-1.1
		S49.1,12,48.5,12h-1.6V15z"/>
	<path class="st1" d="M59.4,18.3h-3.6l-0.7,2.1h-2.2l3.7-10h1.9l3.7,10h-2.2L59.4,18.3z M56.3,16.6h2.5l-1.3-3.7L56.3,16.6z"/>
	<path class="st1" d="M70.9,19c-0.4,0.4-0.9,0.8-1.6,1s-1.4,0.4-2.2,0.4c-0.9,0-1.6-0.2-2.3-0.6c-0.6-0.4-1.2-0.9-1.5-1.6
		c-0.4-0.7-0.5-1.6-0.5-2.5V15c0-1,0.2-1.9,0.5-2.6c0.3-0.7,0.8-1.3,1.4-1.7c0.6-0.4,1.4-0.6,2.2-0.6c1.2,0,2.1,0.3,2.8,0.8
		s1.1,1.4,1.2,2.5h-2c-0.1-0.6-0.3-1-0.6-1.3C68,12,67.6,11.9,67,11.9c-0.7,0-1.2,0.3-1.6,0.8S64.9,14,64.9,15v0.6
		c0,1,0.2,1.8,0.6,2.4s1,0.8,1.7,0.8c0.8,0,1.3-0.2,1.6-0.5v-1.7H67v-1.5h3.9V19z"/>
	<path class="st1" d="M80.8,15.6c0,1-0.2,1.8-0.5,2.6s-0.8,1.3-1.5,1.7c-0.6,0.4-1.4,0.6-2.2,0.6c-0.8,0-1.6-0.2-2.2-0.6
		s-1.1-1-1.5-1.7s-0.5-1.6-0.5-2.5v-0.5c0-1,0.2-1.8,0.5-2.6c0.4-0.7,0.9-1.3,1.5-1.7c0.6-0.4,1.4-0.6,2.2-0.6s1.6,0.2,2.2,0.6
		c0.6,0.4,1.1,1,1.5,1.7c0.4,0.7,0.5,1.6,0.5,2.6V15.6z M78.7,15.1c0-1-0.2-1.8-0.6-2.4s-0.9-0.8-1.6-0.8c-0.7,0-1.2,0.3-1.6,0.8
		s-0.6,1.3-0.6,2.4v0.5c0,1,0.2,1.8,0.6,2.4s0.9,0.8,1.6,0.8c0.7,0,1.2-0.3,1.6-0.8s0.6-1.3,0.6-2.4V15.1z"/>
	<path class="st1" d="M90.3,20.3h-2.1l-4-6.5v6.5h-2.1v-10h2.1l4,6.6v-6.6h2V20.3z"/>
</g>
<path id="Oval_8" class="st1" d="M17.5,22c-1.4,0-2.8-0.4-3.9-1.3c-1.1-0.8-1.9-1.9-2.3-3.2c0-0.1,0-0.2,0-0.3
	c-0.1-0.5-0.1-0.8,0-0.9c0,0,0,0,0.1,0c0,0,0,0,0,0c0.1,0.2,0.2,0.3,0.3,0.5c0.1,0.3,0.3,0.6,0.4,0.9c0.2,0.3,0.4,0.6,0.7,0.9
	c0,0,0,0,0,0c0-0.1-0.1-0.2-0.2-0.4c-0.1-0.1-0.2-0.3-0.3-0.4c-0.2-0.3-0.2-0.5-0.2-0.6c0,0,0,0,0.1-0.1h0c0.1,0,0.3,0.3,0.6,0.6
	l0,0c0.1,0.2,0.3,0.3,0.4,0.5c0.2,0.3,0.5,0.5,0.8,0.7c0,0,0,0,0,0c0,0,0,0,0,0c0,0-0.1-0.2-0.2-0.3c-0.1-0.1-0.1-0.2-0.2-0.3l0,0
	c-0.1-0.2-0.3-0.4-0.1-0.5c0,0,0,0,0.1,0c0.1,0,0.4,0.2,0.6,0.4l0.1,0.1l0,0c0.2,0.2,0.3,0.3,0.4,0.3c0,0,0,0,0,0c0,0,0-0.1,0-0.2
	s-0.1-0.2,0-0.3c0,0,0.1-0.1,0.1-0.1h0c0.1,0,0.2,0.1,0.3,0.1l0,0c0.1,0.1,0.2,0.1,0.4,0.2c0.5,0.4,1,0.5,1.6,0.5
	c1.5,0,2.7-1.2,2.7-2.6c0-1.1-0.7-2-1.7-2.4c-0.1,0.1-0.2,0.3-0.3,0.4c-0.1,0.1-0.3,0.2-0.5,0.2c-0.1,0-0.2,0-0.3,0.1
	c-0.5,0.1-6.3,1.4-6.3,1.4c0,0,0,0-0.1,0c-0.2,0-0.4,0-0.5-0.1c-0.2-0.2,0.3-1.1,0.3-1.1c0.6-1.1,1.3-2.2,2-3.2
	c0.1-0.1,0.2-0.2,0.5-0.4c0.6-0.4,1.6-1.2,2.7-2.1c0.7-0.6,1.3-1.2,1.9-1.9c0.1-0.1,0.1-0.2,0.2-0.3C17.9,6.2,18,6,18.3,6
	c0.1,0,0.2,0,0.3,0.1c0.2,0.2,0.1,0.6,0.1,0.8c0,0,0,0,0,0.1c-0.2,0.6-0.4,1.2-0.6,1.7C18,8.9,18,9.1,18,9.2c1.6,0.1,3.1,0.8,4.3,2
	c1.1,1.2,1.7,2.7,1.7,4.3C23.9,19.2,21,22,17.5,22z M12.8,13.3c0,0,0,0,0.1,0c0.5,0,1-0.1,1.4-0.4c0.3-0.4,0.5-0.9,0.4-1.4
	c-0.4,0.2-0.7,0.5-1.1,0.8C13.4,12.6,13.1,12.9,12.8,13.3L12.8,13.3z"/>
<g>
</g>
<g>
</g>
<g>
</g>
<g>
</g>
<g>
</g>
<g>
</g>
<g>
</g>
<g>
</g>
<g>
</g>
<g>
</g>
<g>
</g>
</svg>
