<?xml version="1.0" encoding="utf-8"?>
<!-- Generator: Adobe Illustrator 23.0.1, SVG Export Plug-In . SVG Version: 6.00 Build 0)  -->
<svg version="1.1" id="Layer_1" xmlns="http://www.w3.org/2000/svg" xmlns:xlink="http://www.w3.org/1999/xlink" x="0px" y="0px"
	 viewBox="0 0 72 72" style="enable-background:new 0 0 72 72;" xml:space="preserve">
<style type="text/css">
	.st0{fill:url(#Rectangle-2_1_);}
	.st1{fill:#FFFFFF;}
</style>
<g id="Types_Electric" transform="translate(10 10)">
	<g id="Group" transform="translate(5 5)">
		<g transform="matrix(1, 0, 0, 1, -15, -15)">
			
				<linearGradient id="Rectangle-2_1_" gradientUnits="userSpaceOnUse" x1="10.6667" y1="61.5333" x2="10.6667" y2="59.1645" gradientTransform="matrix(30 0 0 -30 -284 1846)">
				<stop  offset="0" style="stop-color:#EDD53E"/>
				<stop  offset="1" style="stop-color:#FBE273"/>
			</linearGradient>
			<path id="Rectangle-2" class="st0" d="M36,0L36,0c19.9,0,36,16.1,36,36l0,0c0,19.9-16.1,36-36,36l0,0C16.1,72,0,55.9,0,36l0,0
				C0,16.1,16.1,0,36,0z"/>
		</g>
		<path id="Path_5" class="st1" d="M13.7,8c-0.2-0.6,0.1-1.2,0.7-1.3c0.1,0,0.2-0.1,0.3-0.1H26c0.5,0,0.9,0.3,1,0.7l5.6,18
			c0.2,0.6-0.1,1.1-0.7,1.3c-0.1,0-0.2,0-0.3,0h-6.9c-0.3,0-0.5,0.2-0.5,0.5c0,0,0,0.1,0,0.1l3.5,12.2c0.2,0.6-0.2,1.1-0.7,1.3
			c-0.4,0.1-0.9,0-1.1-0.4L10.3,19.9c-0.3-0.5-0.2-1.1,0.2-1.5c0.2-0.1,0.4-0.2,0.6-0.2h5.4c0.3,0,0.5-0.2,0.5-0.5
			c0-0.1,0-0.1,0-0.2L13.7,8z"/>
	</g>
</g>
<g>
</g>
<g>
</g>
<g>
</g>
<g>
</g>
<g>
</g>
<g>
</g>
<g>
</g>
<g>
</g>
<g>
</g>
<g>
</g>
<g>
</g>
</svg>
