<?xml version="1.0" encoding="utf-8"?>
<!-- Generator: Adobe Illustrator 23.0.1, SVG Export Plug-In . SVG Version: 6.00 Build 0)  -->
<svg version="1.1" id="Layer_1" xmlns="http://www.w3.org/2000/svg" xmlns:xlink="http://www.w3.org/1999/xlink" x="0px" y="0px"
	 viewBox="0 0 72 72" style="enable-background:new 0 0 72 72;" xml:space="preserve">
<style type="text/css">
	.st0{fill:url(#SVGID_1_);}
	.st1{fill-rule:evenodd;clip-rule:evenodd;fill:#FFFFFF;}
</style>
<g>
	
		<linearGradient id="SVGID_1_" gradientUnits="userSpaceOnUse" x1="306" y1="-286" x2="306" y2="-356.8182" gradientTransform="matrix(1 0 0 -1 -270 -286)">
		<stop  offset="0" style="stop-color:#EC8CE5"/>
		<stop  offset="1" style="stop-color:#F3A7E7"/>
	</linearGradient>
	<path class="st0" d="M36,0L36,0c19.9,0,36,16.1,36,36l0,0c0,19.9-16.1,36-36,36l0,0C16.1,72,0,55.9,0,36l0,0C0,16.1,16.1,0,36,0z"
		/>
</g>
<path class="st1" d="M25.8,46.7l5-1.4l4.7,8.5c0.2,0.4,0.8,0.4,1,0l4.7-8.5l5,1.4c0.4,0.1,0.9-0.3,0.7-0.7l-1.4-4.9l8.3-4.5
	c0.4-0.2,0.4-0.8,0-1L45.4,31l1.5-5.1c0.1-0.4-0.3-0.9-0.7-0.7L41,26.6l-4.5-8.3c-0.2-0.4-0.8-0.4-1,0L31,26.6l-5.1-1.5
	c-0.4-0.1-0.9,0.3-0.7,0.7l1.5,5.1l-8.3,4.6c-0.4,0.2-0.4,0.8,0,1l8.3,4.5L25.1,46C25,46.4,25.4,46.8,25.8,46.7z M30.4,36.6l3.3,1.8
	l1.8,3.3c0.2,0.4,0.8,0.4,1,0l1.8-3.3l3.3-1.8c0.4-0.2,0.4-0.8,0-1l-3.3-1.8l-1.8-3.3c-0.2-0.4-0.8-0.4-1,0l-1.8,3.3l-3.3,1.8
	C30,35.8,30,36.4,30.4,36.6z"/>
<g>
</g>
<g>
</g>
<g>
</g>
<g>
</g>
<g>
</g>
<g>
</g>
<g>
</g>
<g>
</g>
<g>
</g>
<g>
</g>
<g>
</g>
</svg>
