<?xml version="1.0" encoding="utf-8"?>
<!-- Generator: Adobe Illustrator 23.0.1, SVG Export Plug-In . SVG Version: 6.00 Build 0)  -->
<svg version="1.1" id="Layer_1" xmlns="http://www.w3.org/2000/svg" xmlns:xlink="http://www.w3.org/1999/xlink" x="0px" y="0px"
	 viewBox="0 0 110 30" style="enable-background:new 0 0 110 30;" xml:space="preserve">
<style type="text/css">
	.st0{enable-background:new    ;}
	.st1{fill:#D94256;}
	.st2{fill:#FFFFFF;}
</style>
<g>
	<defs>
		<rect id="SVGID_1_" width="110" height="30"/>
	</defs>
	<clipPath id="SVGID_2_">
		<use xlink:href="#SVGID_1_"  style="overflow:visible;"/>
	</clipPath>
</g>
<g id="Group_4" transform="translate(15 15)">
	<g class="st0">
	</g>
</g>
<g id="Tag_Fight" transform="translate(10 10)">
	<g id="Group_4_1_" transform="translate(5 5)">
		<g transform="matrix(1, 0, 0, 1, -15, -15)">
			<path id="Rectangle-2" class="st1" d="M15,0h80c8.3,0,15,6.7,15,15l0,0c0,8.3-6.7,15-15,15H15C6.7,30,0,23.3,0,15l0,0
				C0,6.7,6.7,0,15,0z"/>
		</g>
		<path id="Oval_9" class="st2" d="M2,7.7c-3.9,0-7-2.9-7-6.4C-5-0.3-4.3-1.9-3.1-3c0,1.1,0,2.2,0.1,3.3c0,0,0,0,0,0
			C-2.6,0.3-2.9-5-2.9-6c0.2-0.9,1.1-1.4,2-1.2c0.4,0.1,0.8,0.4,1,0.7c0,0,0.1,0,0.1,0c0.1,0,0.2,0,0.3,0c0.6-0.7,1.7-0.7,2.3-0.1
			C3-6.4,3.2-6.2,3.3-6h0c0.1,0,0.2,0,0.3,0c0.3-0.2,0.6-0.3,0.9-0.3c0.7,0,1.3,0.4,1.6,1.1C6.2-5.1,6.4-5,6.5-5
			c0.3-0.2,0.6-0.3,1-0.3C8.3-5.2,9-4.5,9-3.7v5.1c0,1.7-0.8,3.3-2.1,4.5C5.6,7.1,3.8,7.8,2,7.7z"/>
	</g>
</g>
<g>
	<path class="st2" d="M48.7,16.2h-3.9v4.1h-2.1v-10h6.5V12h-4.4v2.6h3.9V16.2z"/>
	<path class="st2" d="M52.6,20.3h-2.1v-10h2.1V20.3z"/>
	<path class="st2" d="M62.4,19c-0.4,0.4-0.9,0.8-1.6,1s-1.4,0.4-2.2,0.4c-0.9,0-1.6-0.2-2.3-0.6c-0.6-0.4-1.2-0.9-1.5-1.6
		c-0.4-0.7-0.5-1.6-0.5-2.5V15c0-1,0.2-1.9,0.5-2.6s0.8-1.3,1.4-1.7c0.6-0.4,1.4-0.6,2.2-0.6c1.2,0,2.1,0.3,2.8,0.8s1.1,1.4,1.2,2.5
		h-2c-0.1-0.6-0.3-1-0.6-1.3c-0.3-0.3-0.7-0.4-1.3-0.4c-0.7,0-1.2,0.3-1.6,0.8S56.3,14,56.3,15v0.6c0,1,0.2,1.8,0.6,2.4
		s1,0.8,1.7,0.8c0.8,0,1.3-0.2,1.6-0.5v-1.7h-1.9v-1.5h3.9V19z"/>
	<path class="st2" d="M72.1,20.3h-2.1V16h-4v4.3H64v-10h2.1v4h4v-4h2.1V20.3z"/>
	<path class="st2" d="M81.2,12h-3v8.3h-2.1V12h-3v-1.7h8.1V12z"/>
</g>
<g>
</g>
<g>
</g>
<g>
</g>
<g>
</g>
<g>
</g>
<g>
</g>
<g>
</g>
<g>
</g>
<g>
</g>
<g>
</g>
<g>
</g>
</svg>
