<?xml version="1.0" encoding="utf-8"?>
<!-- Generator: Adobe Illustrator 23.0.1, SVG Export Plug-In . SVG Version: 6.00 Build 0)  -->
<svg version="1.1" id="Layer_1" xmlns="http://www.w3.org/2000/svg" xmlns:xlink="http://www.w3.org/1999/xlink" x="0px" y="0px"
	 viewBox="0 0 72 72" style="enable-background:new 0 0 72 72;" xml:space="preserve">
<style type="text/css">
	.st0{fill:url(#SVGID_1_);}
	.st1{fill-rule:evenodd;clip-rule:evenodd;fill:#FFFFFF;}
</style>
<g>
	
		<linearGradient id="SVGID_1_" gradientUnits="userSpaceOnUse" x1="306" y1="-286" x2="306" y2="-357.0717" gradientTransform="matrix(1 0 0 -1 -270 -286)">
		<stop  offset="0" style="stop-color:#CE4265"/>
		<stop  offset="1" style="stop-color:#E74347"/>
	</linearGradient>
	<path class="st0" d="M36,0L36,0c19.9,0,36,16.1,36,36l0,0c0,19.9-16.1,36-36,36l0,0C16.1,72,0,55.9,0,36l0,0C0,16.1,16.1,0,36,0z"
		/>
</g>
<path class="st1" d="M24.2,21.9c0.4-1.7,2-3,3.8-3c1.4,0,2.6,0.7,3.3,1.8c0.1,0,0.2,0,0.3,0c0.3,0,0.5,0,0.8,0.1
	c0.7-0.8,1.8-1.3,2.9-1.3c1.6,0,3,1,3.6,2.4h0c0.3,0,0.6,0,0.8,0.1c0.6-0.4,1.4-0.7,2.2-0.7c1.7,0,3.2,1.1,3.7,2.6
	c0.3,0.1,0.6,0.2,0.8,0.4c0.6-0.4,1.4-0.6,2.1-0.6c2.2,0,4,1.8,4,4v11.9v0.2c0,0.1,0,0.1,0,0.2C52.6,48.3,45.1,55,36,55
	c-9.3,0-16.8-6.9-16.8-15.3c0-4.1,1.8-7.8,4.6-10.5c0,4,0.1,8.1,0.4,8C25,37,24.4,24.6,24.2,21.9z"/>
<g>
</g>
<g>
</g>
<g>
</g>
<g>
</g>
<g>
</g>
<g>
</g>
<g>
</g>
<g>
</g>
<g>
</g>
<g>
</g>
<g>
</g>
</svg>
