<?xml version="1.0" encoding="utf-8"?>
<!-- Generator: Adobe Illustrator 23.0.1, SVG Export Plug-In . SVG Version: 6.00 Build 0)  -->
<svg version="1.1" id="Layer_1" xmlns="http://www.w3.org/2000/svg" xmlns:xlink="http://www.w3.org/1999/xlink" x="0px" y="0px"
	 viewBox="0 0 110 30" style="enable-background:new 0 0 110 30;" xml:space="preserve">
<style type="text/css">
	.st0{enable-background:new    ;}
	.st1{fill:#9BB4E8;}
	.st2{fill:#FFFFFF;}
</style>
<g>
	<defs>
		<rect id="SVGID_1_" width="110" height="30"/>
	</defs>
	<clipPath id="SVGID_2_">
		<use xlink:href="#SVGID_1_"  style="overflow:visible;"/>
	</clipPath>
</g>
<g id="Group_4" transform="translate(15 15)">
	<g class="st0">
	</g>
</g>
<g id="Tag_Flying" transform="translate(10 10)">
	<g id="Group_4_1_" transform="translate(5 5)">
		<g transform="matrix(1, 0, 0, 1, -15, -15)">
			<path id="Rectangle-2" class="st1" d="M15,0h80c8.3,0,15,6.7,15,15l0,0c0,8.3-6.7,15-15,15H15C6.7,30,0,23.3,0,15l0,0
				C0,6.7,6.7,0,15,0z"/>
		</g>
		<path id="Oval_2" class="st2" d="M-0.1,6C2.3,6,4.4,4.7,5.4,2.6c0,0-3.5,0.9-3.4,0.6c0.1-0.2,2.2-1,3.8-1.9c0.6-0.4,1.1-1,1.3-1.7
			C6.4,0,5.6,0.3,4.8,0.5c-1,0.3-1.9,0.4-2.9,0.3c1.9-0.6,3.7-1.4,5.5-2.5c0.9-0.6,1.6-1.5,1.9-2.5c-0.8,0.5-1.7,1-2.6,1.3
			C5.2-2.3,3.7-2,2.1-1.9C2.1-2.2,4-2.7,6-3.7c1-0.6,2-1.2,3-1.9c1.1-0.8,1.8-2,2-3.4c-0.8,0.5-1.6,1-2.5,1.5C5.8-6.2,2.9-5.4-0.1-5
			C-3.3-4.8-6-2.5-6,0.5C-5.8,3.7-3.2,6.1-0.1,6z"/>
	</g>
</g>
<g>
	<path class="st2" d="M45.7,16.2h-3.9v4.1h-2.1v-10h6.5V12h-4.4v2.6h3.9V16.2z"/>
	<path class="st2" d="M49.5,18.7h4.4v1.6h-6.4v-10h2.1V18.7z"/>
	<path class="st2" d="M56.5,14.8l2.1-4.5h2.2l-3.3,6.3v3.6h-2.1v-3.6l-3.3-6.3h2.2L56.5,14.8z"/>
	<path class="st2" d="M63.9,20.3h-2.1v-10h2.1V20.3z"/>
	<path class="st2" d="M73.9,20.3h-2.1l-4-6.5v6.5h-2.1v-10h2.1l4,6.6v-6.6h2V20.3z"/>
	<path class="st2" d="M83.6,19c-0.4,0.4-0.9,0.8-1.6,1s-1.4,0.4-2.2,0.4c-0.9,0-1.6-0.2-2.3-0.6c-0.6-0.4-1.2-0.9-1.5-1.6
		c-0.4-0.7-0.5-1.6-0.5-2.5V15c0-1,0.2-1.9,0.5-2.6c0.3-0.7,0.8-1.3,1.4-1.7c0.6-0.4,1.4-0.6,2.2-0.6c1.2,0,2.1,0.3,2.8,0.8
		s1.1,1.4,1.2,2.5h-2c-0.1-0.6-0.3-1-0.6-1.3c-0.3-0.3-0.7-0.4-1.3-0.4c-0.7,0-1.2,0.3-1.6,0.8S77.5,14,77.5,15v0.6
		c0,1,0.2,1.8,0.6,2.4s1,0.8,1.7,0.8c0.8,0,1.3-0.2,1.6-0.5v-1.7h-1.9v-1.5h3.9V19z"/>
</g>
<g>
</g>
<g>
</g>
<g>
</g>
<g>
</g>
<g>
</g>
<g>
</g>
<g>
</g>
<g>
</g>
<g>
</g>
<g>
</g>
<g>
</g>
</svg>
