<?xml version="1.0" encoding="utf-8"?>
<!-- Generator: Adobe Illustrator 23.0.1, SVG Export Plug-In . SVG Version: 6.00 Build 0)  -->
<svg version="1.1" id="Layer_1" xmlns="http://www.w3.org/2000/svg" xmlns:xlink="http://www.w3.org/1999/xlink" x="0px" y="0px"
	 viewBox="0 0 72 72" style="enable-background:new 0 0 72 72;" xml:space="preserve">
<style type="text/css">
	.st0{fill:url(#Rectangle-2_1_);}
	.st1{fill:#FFFFFF;}
</style>
<g id="Types_Grass" transform="translate(10 10)">
	<g id="Group" transform="translate(5 5)">
		<g transform="matrix(1, 0, 0, 1, -15, -15)">
			
				<linearGradient id="Rectangle-2_1_" gradientUnits="userSpaceOnUse" x1="10.6667" y1="61.5333" x2="10.6667" y2="59.1333" gradientTransform="matrix(30 0 0 -30 -284 1846)">
				<stop  offset="0" style="stop-color:#5FBC51"/>
				<stop  offset="1" style="stop-color:#5AC178"/>
			</linearGradient>
			<path id="Rectangle-2" class="st0" d="M36,0L36,0c19.9,0,36,16.1,36,36l0,0c0,19.9-16.1,36-36,36l0,0C16.1,72,0,55.9,0,36l0,0
				C0,16.1,16.1,0,36,0z"/>
		</g>
		<path id="Oval" class="st1" d="M9.6,32.9c-5.7-5.7-5.7-15,0-20.8c3-3,9.3-4.5,14.2-5.2C27,6.4,30.3,6.1,33.6,6l0,0
			c0.4,3.7,0.6,7.5,0.5,11.3C34,22.8,33.3,30,30.3,32.9c-5,5-12.9,5.7-18.7,1.7l4.6-5.7l7.4-1.6l-6-0.6l3.8-3.9l4.3-1l-3.4-1
			l3.4-6.2l-4.9,5.5L19,17.5l0.7,4.4l-3.4,3.8l-1.6-4.9l0,6.5l-4.8,5.9l0,0L9.6,32.9z"/>
	</g>
</g>
<g>
</g>
<g>
</g>
<g>
</g>
<g>
</g>
<g>
</g>
<g>
</g>
<g>
</g>
<g>
</g>
<g>
</g>
<g>
</g>
<g>
</g>
</svg>
