<?xml version="1.0" encoding="utf-8"?>
<!-- Generator: Adobe Illustrator 23.0.1, SVG Export Plug-In . SVG Version: 6.00 Build 0)  -->
<svg version="1.1" id="Layer_1" xmlns="http://www.w3.org/2000/svg" xmlns:xlink="http://www.w3.org/1999/xlink" x="0px" y="0px"
	 viewBox="0 0 110 30" style="enable-background:new 0 0 110 30;" xml:space="preserve">
<style type="text/css">
	.st0{enable-background:new    ;}
	.st1{fill:#5DBE62;}
	.st2{fill:#FFFFFF;}
</style>
<g>
	<defs>
		<rect id="SVGID_1_" width="110" height="30"/>
	</defs>
	<clipPath id="SVGID_2_">
		<use xlink:href="#SVGID_1_"  style="overflow:visible;"/>
	</clipPath>
</g>
<g id="Group_4" transform="translate(15 15)">
	<g class="st0">
	</g>
</g>
<g id="Tag_Grass" transform="translate(10 10)">
	<g id="Group_4_1_" transform="translate(5 5)">
		<g transform="matrix(1, 0, 0, 1, -15, -15)">
			<path id="Rectangle-2" class="st1" d="M15,0h80c8.3,0,15,6.7,15,15l0,0c0,8.3-6.7,15-15,15H15C6.7,30,0,23.3,0,15l0,0
				C0,6.7,6.7,0,15,0z"/>
		</g>
		<path id="Oval" class="st2" d="M-2,4.8c-2.5-2.5-2.5-6.6,0-9.1c1.3-1.3,4.1-2,6.2-2.3C5.6-6.8,7.1-7,8.5-7l0,0
			c0.2,1.6,0.2,3.3,0.2,5c0,2.4-0.4,5.6-1.7,6.9C4.9,7,1.5,7.4-1.1,5.6l2-2.5l3.2-0.7L1.5,2.1l1.7-1.7L5.1,0L3.6-0.5l1.5-2.7L3-0.8
			L2.1-1.9L2.4,0L0.9,1.7L0.2-0.5l0,2.8L-1.9,5l0,0L-2,4.8z"/>
	</g>
</g>
<g>
	<path class="st2" d="M47.6,19c-0.4,0.4-0.9,0.8-1.6,1s-1.4,0.4-2.2,0.4c-0.9,0-1.6-0.2-2.3-0.6S40.4,19,40,18.2
		c-0.4-0.7-0.5-1.6-0.5-2.5V15c0-1,0.2-1.9,0.5-2.6s0.8-1.3,1.4-1.7s1.4-0.6,2.2-0.6c1.2,0,2.1,0.3,2.8,0.8s1.1,1.4,1.2,2.5h-2
		c-0.1-0.6-0.3-1-0.6-1.3s-0.7-0.4-1.3-0.4c-0.7,0-1.2,0.3-1.6,0.8S41.6,14,41.6,15v0.6c0,1,0.2,1.8,0.6,2.4s1,0.8,1.7,0.8
		c0.8,0,1.3-0.2,1.6-0.5v-1.7h-1.9v-1.5h3.9V19z"/>
	<path class="st2" d="M53,16.7h-1.6v3.6h-2.1v-10H53c1.2,0,2.1,0.3,2.7,0.8c0.6,0.5,1,1.3,1,2.2c0,0.7-0.1,1.2-0.4,1.7
		c-0.3,0.5-0.7,0.8-1.3,1.1l2.2,4.1v0.1h-2.2L53,16.7z M51.3,15H53c0.5,0,0.9-0.1,1.2-0.4s0.4-0.6,0.4-1.1c0-0.5-0.1-0.8-0.4-1.1
		S53.5,12,53,12h-1.6V15z"/>
	<path class="st2" d="M63.8,18.3h-3.6l-0.7,2.1h-2.2l3.7-10H63l3.7,10h-2.2L63.8,18.3z M60.8,16.6h2.5L62,12.9L60.8,16.6z"/>
	<path class="st2" d="M72.8,17.7c0-0.4-0.1-0.7-0.4-0.9s-0.8-0.4-1.5-0.7c-0.7-0.2-1.3-0.5-1.7-0.7c-1.1-0.6-1.7-1.4-1.7-2.5
		c0-0.5,0.2-1,0.5-1.4c0.3-0.4,0.7-0.8,1.3-1c0.6-0.2,1.2-0.4,1.9-0.4c0.7,0,1.3,0.1,1.9,0.4s1,0.6,1.3,1.1c0.3,0.5,0.5,1,0.5,1.6
		h-2.1c0-0.5-0.1-0.8-0.4-1.1s-0.7-0.4-1.2-0.4c-0.5,0-0.9,0.1-1.2,0.3s-0.4,0.5-0.4,0.8c0,0.3,0.2,0.6,0.5,0.8
		c0.3,0.2,0.8,0.4,1.4,0.6c1.2,0.4,2,0.8,2.5,1.3c0.5,0.5,0.8,1.2,0.8,1.9c0,0.9-0.3,1.5-1,2s-1.5,0.7-2.6,0.7
		c-0.8,0-1.5-0.1-2.1-0.4s-1.1-0.7-1.4-1.2c-0.3-0.5-0.5-1.1-0.5-1.7h2.1c0,1.1,0.7,1.6,2,1.6c0.5,0,0.9-0.1,1.1-0.3
		S72.8,18,72.8,17.7z"/>
	<path class="st2" d="M81.4,17.7c0-0.4-0.1-0.7-0.4-0.9s-0.8-0.4-1.5-0.7c-0.7-0.2-1.3-0.5-1.7-0.7c-1.1-0.6-1.7-1.4-1.7-2.5
		c0-0.5,0.2-1,0.5-1.4c0.3-0.4,0.7-0.8,1.3-1c0.6-0.2,1.2-0.4,1.9-0.4c0.7,0,1.3,0.1,1.9,0.4s1,0.6,1.3,1.1c0.3,0.5,0.5,1,0.5,1.6
		h-2.1c0-0.5-0.1-0.8-0.4-1.1s-0.7-0.4-1.2-0.4c-0.5,0-0.9,0.1-1.2,0.3s-0.4,0.5-0.4,0.8c0,0.3,0.2,0.6,0.5,0.8
		c0.3,0.2,0.8,0.4,1.4,0.6c1.2,0.4,2,0.8,2.5,1.3c0.5,0.5,0.8,1.2,0.8,1.9c0,0.9-0.3,1.5-1,2s-1.5,0.7-2.6,0.7
		c-0.8,0-1.5-0.1-2.1-0.4s-1.1-0.7-1.4-1.2c-0.3-0.5-0.5-1.1-0.5-1.7h2.1c0,1.1,0.7,1.6,2,1.6c0.5,0,0.9-0.1,1.1-0.3
		S81.4,18,81.4,17.7z"/>
</g>
<g>
</g>
<g>
</g>
<g>
</g>
<g>
</g>
<g>
</g>
<g>
</g>
<g>
</g>
<g>
</g>
<g>
</g>
<g>
</g>
<g>
</g>
</svg>
