<?xml version="1.0" encoding="utf-8"?>
<!-- Generator: Adobe Illustrator 23.0.1, SVG Export Plug-In . SVG Version: 6.00 Build 0)  -->
<svg version="1.1" id="Layer_1" xmlns="http://www.w3.org/2000/svg" xmlns:xlink="http://www.w3.org/1999/xlink" x="0px" y="0px"
	 viewBox="0 0 72 72" style="enable-background:new 0 0 72 72;" xml:space="preserve">
<style type="text/css">
	.st0{fill:url(#Rectangle-2_1_);}
	.st1{fill:#FFFFFF;}
</style>
<g id="Types_Ice" transform="translate(10 10)">
	<g id="Group" transform="translate(5 5)">
		<g transform="matrix(1, 0, 0, 1, -15, -15)">
			
				<linearGradient id="Rectangle-2_1_" gradientUnits="userSpaceOnUse" x1="10.6667" y1="61.5333" x2="10.6667" y2="59.1333" gradientTransform="matrix(30 0 0 -30 -284 1846)">
				<stop  offset="0" style="stop-color:#70CCBD"/>
				<stop  offset="1" style="stop-color:#8CDDD4"/>
			</linearGradient>
			<path id="Rectangle-2" class="st0" d="M36,0L36,0c19.9,0,36,16.1,36,36l0,0c0,19.9-16.1,36-36,36l0,0C16.1,72,0,55.9,0,36l0,0
				C0,16.1,16.1,0,36,0z"/>
		</g>
		<g id="Group_2" transform="translate(6.5 6.5)">
			<path id="Polygon" class="st1" d="M24.5-2.7l0.1,11L15,12.9L14.9,2.5L24.5-2.7z"/>
			<path id="Polygon-2" class="st1" d="M34.1,14.6L24.6,20l-9.5-5.4l9.5-5L34.1,14.6z"/>
			<path id="Polygon_Copy" class="st1" d="M13.4,14.6L3.9,20l-9.5-5.4l9.5-5L13.4,14.6z"/>
			<path id="Polygon-3" class="st1" d="M3.8-2.7l9.8,4.9l-0.2,10.6L4.1,8.2L3.8-2.7z"/>
			<path id="Polygon-4" class="st1" d="M24.7,31.8l-9.8-4.9l0.2-10.6l9.3,4.6L24.7,31.8z"/>
			<path id="Polygon-5" class="st1" d="M4.2,31.9L4,20.9l9.6-4.6l0.1,10.4L4.2,31.9z"/>
		</g>
	</g>
</g>
<g>
</g>
<g>
</g>
<g>
</g>
<g>
</g>
<g>
</g>
<g>
</g>
<g>
</g>
<g>
</g>
<g>
</g>
<g>
</g>
<g>
</g>
</svg>
