<?xml version="1.0" encoding="utf-8"?>
<!-- Generator: Adobe Illustrator 23.0.1, SVG Export Plug-In . SVG Version: 6.00 Build 0)  -->
<svg version="1.1" id="Layer_1" xmlns="http://www.w3.org/2000/svg" xmlns:xlink="http://www.w3.org/1999/xlink" x="0px" y="0px"
	 viewBox="0 0 110 30" style="enable-background:new 0 0 110 30;" xml:space="preserve">
<style type="text/css">
	.st0{enable-background:new    ;}
	.st1{clip-path:url(#SVGID_5_);}
	.st2{fill:#7ED4C9;}
	.st3{fill:#FFFFFF;}
</style>
<g>
	<defs>
		<rect id="SVGID_1_" width="110" height="30"/>
	</defs>
	<clipPath id="SVGID_2_">
		<use xlink:href="#SVGID_1_"  style="overflow:visible;"/>
	</clipPath>
</g>
<g id="Group_4" transform="translate(15 15)">
	<g class="st0">
	</g>
</g>
<g>
	<defs>
		<path id="SVGID_3_" d="M106,31"/>
	</defs>
	<defs>
		<path id="SVGID_4_" d="M-4,31"/>
	</defs>
	<clipPath id="SVGID_5_">
		<use xlink:href="#SVGID_3_"  style="overflow:visible;"/>
	</clipPath>
	<clipPath id="SVGID_6_" class="st1">
		<use xlink:href="#SVGID_4_"  style="overflow:visible;"/>
	</clipPath>
</g>
<g id="Tag_Ice" transform="translate(10 10)">
	<g id="Group_4_1_" transform="translate(5 5)">
		<g transform="matrix(1, 0, 0, 1, -15, -15)">
			<path id="Rectangle-2" class="st2" d="M15,0h80c8.3,0,15,6.7,15,15l0,0c0,8.3-6.7,15-15,15H15C6.7,30,0,23.3,0,15l0,0
				C0,6.7,6.7,0,15,0z"/>
		</g>
		<g id="Group_2" transform="translate(14 6)">
			<path id="Polygon" class="st3" d="M-6.3-13.8l0.1,5l-4.3,2.1l-0.1-4.7L-6.3-13.8z"/>
			<path id="Polygon-2" class="st3" d="M-2-6l-4.3,2.4L-10.6-6l4.3-2.2L-2-6z"/>
			<path id="Polygon_Copy" class="st3" d="M-11.3-6l-4.3,2.4L-19.9-6l4.3-2.2L-11.3-6z"/>
			<path id="Polygon-3" class="st3" d="M-15.6-13.9l4.4,2.2l-0.1,4.8l-4.2-2.1L-15.6-13.9z"/>
			<path id="Polygon-4" class="st3" d="M-6.2,1.7l-4.4-2.2l0.1-4.8l4.2,2.1L-6.2,1.7z"/>
			<path id="Polygon-5" class="st3" d="M-15.5,1.8l-0.1-5l4.3-2.1l0.1,4.7L-15.5,1.8z"/>
		</g>
	</g>
</g>
<g>
	<path class="st3" d="M50.9,20.3h-2.1v-10h2.1V20.3z"/>
	<path class="st3" d="M60.6,17c-0.1,1.1-0.5,1.9-1.2,2.5c-0.7,0.6-1.7,0.9-2.8,0.9c-1.3,0-2.3-0.4-3-1.3s-1.1-2-1.1-3.5V15
		c0-1,0.2-1.8,0.5-2.5s0.8-1.3,1.4-1.7s1.4-0.6,2.2-0.6c1.1,0,2.1,0.3,2.8,0.9s1.1,1.5,1.2,2.6h-2.1c0-0.6-0.2-1.1-0.5-1.4
		c-0.3-0.3-0.8-0.4-1.4-0.4c-0.7,0-1.2,0.2-1.5,0.7s-0.5,1.3-0.5,2.3v0.8c0,1.1,0.2,1.9,0.5,2.4c0.3,0.5,0.8,0.7,1.5,0.7
		c0.6,0,1.1-0.1,1.4-0.4c0.3-0.3,0.5-0.7,0.5-1.3H60.6z"/>
	<path class="st3" d="M68,16H64v2.7h4.6v1.6H62v-10h6.7V12H64v2.4H68V16z"/>
</g>
<g>
</g>
<g>
</g>
<g>
</g>
<g>
</g>
<g>
</g>
<g>
</g>
<g>
</g>
<g>
</g>
<g>
</g>
<g>
</g>
<g>
</g>
</svg>
