<?xml version="1.0" encoding="utf-8"?>
<!-- Generator: Adobe Illustrator 23.0.1, SVG Export Plug-In . SVG Version: 6.00 Build 0)  -->
<svg version="1.1" id="Layer_1" xmlns="http://www.w3.org/2000/svg" xmlns:xlink="http://www.w3.org/1999/xlink" x="0px" y="0px"
	 viewBox="0 0 110 30" style="enable-background:new 0 0 110 30;" xml:space="preserve">
<style type="text/css">
	.st0{clip-path:url(#SVGID_3_);}
	.st1{enable-background:new    ;}
	.st2{clip-path:url(#SVGID_7_);}
	.st3{fill:#9A9DA1;}
	.st4{fill:#FFFFFF;}
</style>
<g>
	<defs>
		<line id="SVGID_1_" x1="0" y1="30" x2="0" y2="0"/>
	</defs>
	<defs>
		<line id="SVGID_2_" x1="110" y1="0" x2="110" y2="30"/>
	</defs>
	<clipPath id="SVGID_3_">
		<use xlink:href="#SVGID_1_"  style="overflow:visible;"/>
	</clipPath>
	<clipPath id="SVGID_4_" class="st0">
		<use xlink:href="#SVGID_2_"  style="overflow:visible;"/>
	</clipPath>
</g>
<g id="Group_4" transform="translate(15 15)">
	<g class="st1">
	</g>
</g>
<g>
	<defs>
		<path id="SVGID_5_" d="M106,31"/>
	</defs>
	<defs>
		<path id="SVGID_6_" d="M-4,31"/>
	</defs>
	<clipPath id="SVGID_7_">
		<use xlink:href="#SVGID_5_"  style="overflow:visible;"/>
	</clipPath>
	<clipPath id="SVGID_8_" class="st2">
		<use xlink:href="#SVGID_6_"  style="overflow:visible;"/>
	</clipPath>
</g>
<g id="Tag_Normal" transform="translate(10 10)">
	<g id="Group_4_1_" transform="translate(5 5)">
		<g transform="matrix(1, 0, 0, 1, -15, -15)">
			<path id="Rectangle-2" class="st3" d="M15,0h80c8.3,0,15,6.7,15,15l0,0c0,8.3-6.7,15-15,15H15C6.7,30,0,23.3,0,15l0,0
				C0,6.7,6.7,0,15,0z"/>
		</g>
		<path id="Oval_11" class="st4" d="M2,7c-3.9,0-7-3.1-7-7s3.1-7,7-7s7,3.1,7,7C9,3.9,5.9,7,2,7z M2-4c-2.2,0-4,1.8-4,4s1.8,4,4,4
			s4-1.8,4-4C6-2.2,4.2-4,2-4z"/>
	</g>
</g>
<g>
	<path class="st4" d="M43.3,20.3h-2.1l-4-6.5v6.5h-2.1v-10h2.1l4,6.6v-6.6h2V20.3z"/>
	<path class="st4" d="M53.3,15.6c0,1-0.2,1.8-0.5,2.6s-0.8,1.3-1.5,1.7c-0.6,0.4-1.4,0.6-2.2,0.6c-0.8,0-1.6-0.2-2.2-0.6
		s-1.1-1-1.5-1.7s-0.5-1.6-0.5-2.5v-0.5c0-1,0.2-1.8,0.5-2.6s0.9-1.3,1.5-1.7s1.4-0.6,2.2-0.6s1.6,0.2,2.2,0.6
		c0.6,0.4,1.1,1,1.5,1.7c0.4,0.7,0.5,1.6,0.5,2.6V15.6z M51.2,15.1c0-1-0.2-1.8-0.6-2.4s-0.9-0.8-1.6-0.8c-0.7,0-1.2,0.3-1.6,0.8
		s-0.6,1.3-0.6,2.4v0.5c0,1,0.2,1.8,0.6,2.4s0.9,0.8,1.6,0.8c0.7,0,1.2-0.3,1.6-0.8s0.6-1.3,0.6-2.4V15.1z"/>
	<path class="st4" d="M58.5,16.7h-1.6v3.6h-2.1v-10h3.7c1.2,0,2.1,0.3,2.7,0.8s1,1.3,1,2.2c0,0.7-0.1,1.2-0.4,1.7
		c-0.3,0.5-0.7,0.8-1.3,1.1l2.2,4.1v0.1h-2.2L58.5,16.7z M56.8,15h1.7c0.5,0,0.9-0.1,1.2-0.4s0.4-0.6,0.4-1.1c0-0.5-0.1-0.8-0.4-1.1
		C59.4,12.1,59,12,58.5,12h-1.6V15z"/>
	<path class="st4" d="M66.4,10.3l2.6,7.2l2.5-7.2h2.7v10h-2.1v-2.7l0.2-4.7l-2.7,7.4h-1.4l-2.7-7.4l0.2,4.7v2.7h-2.1v-10H66.4z"/>
	<path class="st4" d="M81.7,18.3h-3.6l-0.7,2.1h-2.2l3.7-10h1.9l3.7,10h-2.2L81.7,18.3z M78.7,16.6h2.5l-1.3-3.7L78.7,16.6z"/>
	<path class="st4" d="M87.6,18.7h4.4v1.6h-6.4v-10h2.1V18.7z"/>
</g>
<g>
</g>
<g>
</g>
<g>
</g>
<g>
</g>
<g>
</g>
<g>
</g>
<g>
</g>
<g>
</g>
<g>
</g>
<g>
</g>
<g>
</g>
</svg>
