<?xml version="1.0" encoding="utf-8"?>
<!-- Generator: Adobe Illustrator 23.0.1, SVG Export Plug-In . SVG Version: 6.00 Build 0)  -->
<svg version="1.1" id="Layer_1" xmlns="http://www.w3.org/2000/svg" xmlns:xlink="http://www.w3.org/1999/xlink" x="0px" y="0px"
	 viewBox="0 0 72 72" style="enable-background:new 0 0 72 72;" xml:space="preserve">
<style type="text/css">
	.st0{fill:url(#Rectangle-2_2_);}
	.st1{fill:url(#Rectangle-2_3_);}
	.st2{fill:#FFFFFF;}
</style>
<g id="Types_Poison" transform="translate(10 10)">
	<g id="Group" transform="translate(5 5)">
		<g transform="matrix(1, 0, 0, 1, -15, -15)">
			
				<linearGradient id="Rectangle-2_2_" gradientUnits="userSpaceOnUse" x1="10.6667" y1="61.5333" x2="10.6667" y2="61.5333" gradientTransform="matrix(30 0 0 -30 -284 1846)">
				<stop  offset="0" style="stop-color:#A864C7"/>
				<stop  offset="1" style="stop-color:#C261D4"/>
			</linearGradient>
			<path id="Rectangle-2_1_" class="st0" d="M36,0L36,0"/>
		</g>
	</g>
</g>
<g id="Types_Psychic" transform="translate(10 10)">
	<g id="Group_1_" transform="translate(5 5)">
		<g transform="matrix(1, 0, 0, 1, -15, -15)">
			
				<linearGradient id="Rectangle-2_3_" gradientUnits="userSpaceOnUse" x1="10.6667" y1="61.5333" x2="10.6667" y2="59.1333" gradientTransform="matrix(30 0 0 -30 -284 1846)">
				<stop  offset="0" style="stop-color:#F66F71"/>
				<stop  offset="1" style="stop-color:#FE9F92"/>
			</linearGradient>
			<path id="Rectangle-2" class="st1" d="M36,0L36,0c19.9,0,36,16.1,36,36l0,0c0,19.9-16.1,36-36,36l0,0C16.1,72,0,55.9,0,36l0,0
				C0,16.1,16.1,0,36,0z"/>
		</g>
		<path id="Path_9" class="st2" d="M33.1,32.1c0,0-4.2,3.4-12.7,2c-6.4-1.1-9.8-8.1-9.8-11.9c0-9,6.7-11,11.1-11
			c4.1,0.3,7.4,3.6,7.4,7.8c0.1,3.4-2.5,6.2-5.8,6.4c-0.1,0-0.2,0-0.3,0c-2.5,0.2-4.7-1.7-4.9-4.2c0-0.3,0-0.6,0-0.9
			c0-1.8,1.5-3.3,3.3-3.3c0.1,0,0.3,0,0.4,0c1.8,0,2.4,1.5,2.4,2.8c0,0.9-0.7,1.7-1.7,1.8c-0.1,0-0.1,0-0.2,0
			c-0.8,0-0.9-0.4-1.3-0.9s0.4-2.1-0.8-2.1S19,20.5,19,20.5c0.2,2.1,2,3.7,4.1,3.7c2.6,0.2,4.8-1.8,4.9-4.4c0-0.4,0-0.8-0.1-1.3
			c-0.8-3.6-4.3-5.9-7.9-5.1c-4.7,0.6-6.7,5.4-5.8,10.5s7,8.1,11.8,7c4.8-1.1,9.6-4.5,9.6-13.4S28,3.4,18.8,4.3S4.1,13.1,4.4,22.7
			s9.5,14.8,17.1,15.1c4.5,0.2,8.9-1.3,12.4-4.2c0,0,1.1-0.9,0.6-1.7C34.2,31.2,33.1,32.1,33.1,32.1z"/>
	</g>
</g>
<g>
</g>
<g>
</g>
<g>
</g>
<g>
</g>
<g>
</g>
<g>
</g>
<g>
</g>
<g>
</g>
<g>
</g>
<g>
</g>
<g>
</g>
</svg>
