<?xml version="1.0" encoding="utf-8"?>
<!-- Generator: Adobe Illustrator 23.0.1, SVG Export Plug-In . SVG Version: 6.00 Build 0)  -->
<svg version="1.1" id="Layer_1" xmlns="http://www.w3.org/2000/svg" xmlns:xlink="http://www.w3.org/1999/xlink" x="0px" y="0px"
	 viewBox="0 0 110 30" style="enable-background:new 0 0 110 30;" xml:space="preserve">
<style type="text/css">
	.st0{clip-path:url(#SVGID_3_);}
	.st1{enable-background:new    ;}
	.st2{clip-path:url(#SVGID_7_);}
	.st3{fill:#5596A4;}
	.st4{fill:#FFFFFF;}
</style>
<g>
	<defs>
		<line id="SVGID_1_" x1="0" y1="30" x2="0" y2="0"/>
	</defs>
	<defs>
		<line id="SVGID_2_" x1="110" y1="0" x2="110" y2="30"/>
	</defs>
	<clipPath id="SVGID_3_">
		<use xlink:href="#SVGID_1_"  style="overflow:visible;"/>
	</clipPath>
	<clipPath id="SVGID_4_" class="st0">
		<use xlink:href="#SVGID_2_"  style="overflow:visible;"/>
	</clipPath>
</g>
<g id="Group_4" transform="translate(15 15)">
	<g class="st1">
	</g>
</g>
<g>
	<defs>
		<path id="SVGID_5_" d="M106,31"/>
	</defs>
	<defs>
		<path id="SVGID_6_" d="M-4,31"/>
	</defs>
	<clipPath id="SVGID_7_">
		<use xlink:href="#SVGID_5_"  style="overflow:visible;"/>
	</clipPath>
	<clipPath id="SVGID_8_" class="st2">
		<use xlink:href="#SVGID_6_"  style="overflow:visible;"/>
	</clipPath>
</g>
<g id="Tag_Steel" transform="translate(10 10)">
	<g id="Group_4_1_" transform="translate(5 5)">
		<g transform="matrix(1, 0, 0, 1, -15, -15)">
			<path id="Rectangle-2" class="st3" d="M15,0h80c8.3,0,15,6.7,15,15l0,0c0,8.3-6.7,15-15,15H15C6.7,30,0,23.3,0,15l0,0
				C0,6.7,6.7,0,15,0z"/>
		</g>
		<path id="Path_7" class="st4" d="M7.8,6.9H0.2C0.1,6.9,0,6.8-0.1,6.7l-3.8-6.5C-4,0-4-0.1-3.9-0.3l3.8-6.5C0-6.9,0.1-7,0.2-7h7.6
			C8-7,8.1-6.9,8.2-6.8l3.8,6.5C12-0.1,12,0,11.9,0.1L8.2,6.7C8.1,6.8,8,6.9,7.8,6.9z M4-3.8c-2.1,0-3.7,1.7-3.7,3.7S1.9,3.7,4,3.7
			S7.7,2,7.7-0.1S6.1-3.8,4-3.8z"/>
	</g>
</g>
<g>
	<path class="st4" d="M46.9,17.7c0-0.4-0.1-0.7-0.4-0.9s-0.8-0.4-1.5-0.7c-0.7-0.2-1.3-0.5-1.7-0.7c-1.1-0.6-1.7-1.4-1.7-2.5
		c0-0.5,0.2-1,0.5-1.4s0.7-0.8,1.3-1s1.2-0.4,1.9-0.4c0.7,0,1.3,0.1,1.9,0.4s1,0.6,1.3,1.1s0.5,1,0.5,1.6h-2.1
		c0-0.5-0.1-0.8-0.4-1.1s-0.7-0.4-1.2-0.4c-0.5,0-0.9,0.1-1.2,0.3s-0.4,0.5-0.4,0.8c0,0.3,0.2,0.6,0.5,0.8s0.8,0.4,1.4,0.6
		c1.2,0.4,2,0.8,2.5,1.3c0.5,0.5,0.8,1.2,0.8,1.9c0,0.9-0.3,1.5-1,2s-1.5,0.7-2.6,0.7c-0.8,0-1.5-0.1-2.1-0.4s-1.1-0.7-1.4-1.2
		c-0.3-0.5-0.5-1.1-0.5-1.7h2.1c0,1.1,0.7,1.6,2,1.6c0.5,0,0.9-0.1,1.1-0.3S46.9,18,46.9,17.7z"/>
	<path class="st4" d="M57.8,12h-3v8.3h-2.1V12h-3v-1.7h8.1V12z"/>
	<path class="st4" d="M65,16h-3.9v2.7h4.6v1.6H59v-10h6.7V12h-4.6v2.4H65V16z"/>
	<path class="st4" d="M72.9,16h-3.9v2.7h4.6v1.6h-6.7v-10h6.7V12h-4.6v2.4h3.9V16z"/>
	<path class="st4" d="M76.8,18.7h4.4v1.6h-6.4v-10h2.1V18.7z"/>
</g>
<g>
</g>
<g>
</g>
<g>
</g>
<g>
</g>
<g>
</g>
<g>
</g>
<g>
</g>
<g>
</g>
<g>
</g>
<g>
</g>
<g>
</g>
<g>
</g>
</svg>
