<?xml version="1.0" encoding="utf-8"?>
<!-- Generator: Adobe Illustrator 23.0.1, SVG Export Plug-In . SVG Version: 6.00 Build 0)  -->
<svg version="1.1" id="Layer_1" xmlns="http://www.w3.org/2000/svg" xmlns:xlink="http://www.w3.org/1999/xlink" x="0px" y="0px"
	 viewBox="0 0 72 72" style="enable-background:new 0 0 72 72;" xml:space="preserve">
<style type="text/css">
	.st0{fill:url(#Rectangle-2_3_);}
	.st1{fill:url(#Rectangle-2_7_);}
	.st2{fill:url(#Rectangle-2_8_);}
	.st3{fill:url(#Rectangle-2_9_);}
	.st4{fill:url(#Rectangle-2_10_);}
	.st5{fill:url(#Rectangle-2_11_);}
	.st6{fill:#FFFFFF;}
</style>
<g id="Types_Poison" transform="translate(10 10)">
	<g id="Group" transform="translate(5 5)">
		<g transform="matrix(1, 0, 0, 1, -15, -15)">
			
				<linearGradient id="Rectangle-2_3_" gradientUnits="userSpaceOnUse" x1="10.6667" y1="61.5333" x2="10.6667" y2="61.5333" gradientTransform="matrix(30 0 0 -30 -284 1846)">
				<stop  offset="0" style="stop-color:#A864C7"/>
				<stop  offset="1" style="stop-color:#C261D4"/>
			</linearGradient>
			<path id="Rectangle-2_1_" class="st0" d="M36,0L36,0"/>
		</g>
	</g>
</g>
<g id="Types_Psychic" transform="translate(10 10)">
	<g id="Group_1_" transform="translate(5 5)">
		<g transform="matrix(1, 0, 0, 1, -15, -15)">
			
				<linearGradient id="Rectangle-2_7_" gradientUnits="userSpaceOnUse" x1="9.4667" y1="60.3333" x2="9.4667" y2="60.3333" gradientTransform="matrix(30 0 0 -30 -284 1846)">
				<stop  offset="0" style="stop-color:#F66F71"/>
				<stop  offset="1" style="stop-color:#FE9F92"/>
			</linearGradient>
			<path id="Rectangle-2_4_" class="st1" d="M0,36L0,36"/>
			
				<linearGradient id="Rectangle-2_8_" gradientUnits="userSpaceOnUse" x1="10.6667" y1="61.5333" x2="10.6667" y2="61.5333" gradientTransform="matrix(30 0 0 -30 -284 1846)">
				<stop  offset="0" style="stop-color:#F66F71"/>
				<stop  offset="1" style="stop-color:#FE9F92"/>
			</linearGradient>
			<path id="Rectangle-2_2_" class="st2" d="M36,0L36,0"/>
		</g>
	</g>
</g>
<g id="Types_Rock" transform="translate(10 10)">
	<g id="Group_2_" transform="translate(5 5)">
		<g transform="matrix(1, 0, 0, 1, -15, -15)">
			
				<linearGradient id="Rectangle-2_9_" gradientUnits="userSpaceOnUse" x1="9.4667" y1="60.3333" x2="9.4667" y2="60.3333" gradientTransform="matrix(30 0 0 -30 -284 1846)">
				<stop  offset="0" style="stop-color:#C5B489"/>
				<stop  offset="1" style="stop-color:#D7CD90"/>
			</linearGradient>
			<path id="Rectangle-2_6_" class="st3" d="M0,36L0,36"/>
			
				<linearGradient id="Rectangle-2_10_" gradientUnits="userSpaceOnUse" x1="10.6667" y1="61.5333" x2="10.6667" y2="61.5333" gradientTransform="matrix(30 0 0 -30 -284 1846)">
				<stop  offset="0" style="stop-color:#C5B489"/>
				<stop  offset="1" style="stop-color:#D7CD90"/>
			</linearGradient>
			<path id="Rectangle-2_5_" class="st4" d="M36,0L36,0"/>
		</g>
	</g>
</g>
<g id="Types_Steel" transform="translate(10 10)">
	<g id="Group_3_" transform="translate(5 5)">
		<g transform="matrix(1, 0, 0, 1, -15, -15)">
			
				<linearGradient id="Rectangle-2_11_" gradientUnits="userSpaceOnUse" x1="10.6667" y1="61.5333" x2="10.6667" y2="59.1333" gradientTransform="matrix(30 0 0 -30 -284 1846)">
				<stop  offset="0" style="stop-color:#52869D"/>
				<stop  offset="1" style="stop-color:#58A6AA"/>
			</linearGradient>
			<path id="Rectangle-2" class="st5" d="M36,0L36,0c19.9,0,36,16.1,36,36l0,0c0,19.9-16.1,36-36,36l0,0C16.1,72,0,55.9,0,36l0,0
				C0,16.1,16.1,0,36,0z"/>
		</g>
		<path id="Path_7" class="st6" d="M29.6,36.8H12.5c-0.3,0-0.6-0.2-0.8-0.4L3.1,21.7C3,21.4,3,21,3.1,20.8L11.7,6
			c0.2-0.3,0.5-0.4,0.8-0.4h17.1c0.3,0,0.6,0.2,0.8,0.4l8.5,14.7c0.2,0.3,0.2,0.6,0,0.9l-8.5,14.7C30.2,36.6,29.9,36.8,29.6,36.8z
			 M21,12.8c-4.6,0-8.4,3.8-8.4,8.4s3.8,8.4,8.4,8.4s8.4-3.8,8.4-8.4S25.6,12.8,21,12.8z"/>
	</g>
</g>
<g>
</g>
<g>
</g>
<g>
</g>
<g>
</g>
<g>
</g>
<g>
</g>
<g>
</g>
<g>
</g>
<g>
</g>
<g>
</g>
<g>
</g>
</svg>
